<svg width="1709" height="1959" viewBox="0 0 1709 1959" fill="none" xmlns="http://www.w3.org/2000/svg">
<path d="M836.683 40.9482C839.639 20.3595 869.361 20.36 872.317 40.9482L964.406 682.219C970.668 725.824 1016.11 752.057 1057 735.678L1658.4 494.794C1677.71 487.06 1692.57 512.8 1676.22 525.654L1166.91 926.041C1132.27 953.267 1132.27 1005.73 1166.91 1032.96L1676.22 1433.35C1692.44 1446.1 1677.94 1471.54 1658.85 1464.38L1658.4 1464.21L1057 1223.32C1016.11 1206.94 970.668 1233.18 964.406 1276.78L872.317 1918.05C869.361 1938.64 839.639 1938.64 836.683 1918.05L744.594 1276.78C738.332 1233.18 692.894 1206.94 652 1223.32L50.5986 1464.21C31.29 1471.94 16.4297 1446.2 32.7812 1433.35L542.094 1032.96C576.726 1005.73 576.726 953.267 542.094 926.041L32.7812 525.654C16.4294 512.799 31.2904 487.06 50.5986 494.794L652 735.678C692.894 752.057 738.332 725.824 744.594 682.219L836.683 40.9482Z" fill="#FFF9CC" stroke="black" stroke-width="50"/>
</svg>
