<svg width="3462" height="2623" viewBox="0 0 3462 2623" fill="none" xmlns="http://www.w3.org/2000/svg">
<path d="M300 2489.5V1051.5L1097 178L1935.5 1051.5L3176.5 987V1750V2041V2317L1935.5 2597.5L1561 2572.77L618 2510.5L300 2489.5Z" fill="white"/>
<path d="M1935.5 2597.5L3176.5 2317V2041V1750V987L1935.5 1051.5M1935.5 2597.5L1561 2572.77M1935.5 2597.5V2266V1051.5M1935.5 1051.5L1097 178L300 1051.5V2489.5L618 2510.5M618 2510.5V1558C618 1285.5 791.9 1088 1073.5 1088C1425.5 1088 1561 1339 1561 1558C1561 1640 1561 2268.68 1561 2572.77M618 2510.5L1561 2572.77" stroke="black" stroke-width="50"/>
<path d="M153 1269.5L37 1182.5L1078 25H2488L3429 1019L3349 1128L1933 1269.5L1078 244.5L153 1269.5Z" fill="#AC1212"/>
<path d="M1933 1269.5L1078 244.5L153 1269.5L37 1182.5L1078 25M1933 1269.5L3349 1128L3429 1019M1933 1269.5L2033.5 1149.5M1078 25L2033.5 1149.5M1078 25H2488L3429 1019M2033.5 1149.5L3429 1019" stroke="black" stroke-width="50"/>
<path d="M1560.72 2326.72L595.083 2498C595.084 1905.76 558.945 1620.1 609.153 1403.28C664.48 1164.35 822.052 1037 1090.22 1037C1313.51 1037 1469.48 1155.85 1531.57 1359.43C1585.27 1535.5 1560.72 2013.06 1560.72 2326.72Z" fill="#202020" stroke="black" stroke-width="50"/>
<path d="M1314 299.5L2706.5 249M1544.5 583.5L2955 512M1784 856.5L3176 765.5" stroke="black" stroke-width="50"/>
<path d="M1553 2321L609 2489.85L1553 2558V2321Z" fill="#3D3D3D" stroke="black" stroke-width="50"/>
<path d="M721.003 2476.5L593.003 2497C582.999 2039 574.562 1756 583 1545C595.499 1232.5 769.004 1073.5 1039 1047C907.004 1077 721.003 1284.5 721.003 1545V2476.5Z" fill="#6C6C6C" stroke="black" stroke-width="50"/>
</svg>
