<svg width="3462" height="2623" viewBox="0 0 3462 2623" fill="none" xmlns="http://www.w3.org/2000/svg">
<path d="M300.5 2489.5V1051.5L1097.5 178L1936 1051.5L3177 987V1750V2041V2317L1936 2597.5L1561.5 2572.77L618.5 2510.5L300.5 2489.5Z" fill="white"/>
<path d="M1936 2597.5L3177 2317V2041V1750V987L1936 1051.5M1936 2597.5L1561.5 2572.77M1936 2597.5V2266V1051.5M1936 1051.5L1097.5 178L300.5 1051.5V2489.5L618.5 2510.5M618.5 2510.5V1558C618.5 1285.5 792.4 1088 1074 1088C1426 1088 1561.5 1339 1561.5 1558C1561.5 1640 1561.5 2268.68 1561.5 2572.77M618.5 2510.5L1561.5 2572.77" stroke="black" stroke-width="50"/>
<path d="M153.5 1269.5L37.5 1182.5L1078.5 25H2488.5L3429.5 1019L3349.5 1128L1933.5 1269.5L1078.5 244.5L153.5 1269.5Z" fill="#AC1212"/>
<path d="M1933.5 1269.5L1078.5 244.5L153.5 1269.5L37.5 1182.5L1078.5 25M1933.5 1269.5L3349.5 1128L3429.5 1019M1933.5 1269.5L2034 1149.5M1078.5 25L2034 1149.5M1078.5 25H2488.5L3429.5 1019M2034 1149.5L3429.5 1019" stroke="black" stroke-width="50"/>
<path d="M1561.22 2326.72L595.583 2498C595.584 1905.76 559.445 1620.1 609.653 1403.28C664.98 1164.35 822.552 1037 1090.72 1037C1314.01 1037 1469.98 1155.85 1532.07 1359.43C1585.77 1535.5 1561.22 2013.06 1561.22 2326.72Z" fill="#202020" stroke="black" stroke-width="50"/>
<path d="M1535 2355.5L765 2495.5L1535 2552V2355.5Z" fill="black" stroke="black" stroke-width="50"/>
<path d="M1314.5 299.5L2707 249M1545 583.5L2955.5 512M1784.5 856.5L3176.5 765.5" stroke="black" stroke-width="50"/>
</svg>
