<svg width="7316" height="4859" viewBox="0 0 7316 4859" fill="none" xmlns="http://www.w3.org/2000/svg">
<path d="M4100.04 50.001C4522.5 50.1886 4765.04 149.143 4904.08 307.889C5044.46 468.163 5090 700.985 5090 994.568C5090 1563.23 4670.91 2001 4161.19 2001C3890.8 2001 3640.09 1977.68 3456.17 1844.73C3276.11 1714.58 3148 1469.47 3148 994.568C3148 433.443 3573.55 74.7598 4100.04 50.001Z" fill="#F3C744" stroke="black" stroke-width="100"/>
<path d="M4812.89 330.042C4306.89 231.036 3355.89 689.529 3869.89 1918.03" stroke="black" stroke-width="100"/>
<path d="M1086.35 1850C1545 1850.19 1809.46 1957.61 1961.38 2131.08C2114.63 2306.07 2164 2559.87 2164 2878.46C2164 3497.14 1708 3974 1152.74 3974C859.591 3974 586.491 3948.79 385.871 3803.75C189.113 3661.52 50 3394.12 50 2878.46C50.0002 2267.31 513.643 1876.89 1086.35 1850Z" fill="#F3C744" stroke="black" stroke-width="100"/>
<path d="M1710.89 2162.04C1204.89 2063.04 253.893 2521.53 767.893 3750.03" stroke="black" stroke-width="100"/>
<path d="M4571.5 944.5C3446.5 1508.67 1164.5 2661 1036.5 2757C820.5 3694.2 2021.17 3935.5 2648.5 3939L6444 1745.5L4571.5 944.5Z" fill="#404040" stroke="black" stroke-width="100"/>
<path d="M2452.76 1510.64L4260.25 642.078L5442.6 1105.92L5495.55 1938L3579.04 2909.93L2506.66 2357.42L2452.76 1510.64Z" fill="#404040"/>
<path d="M2452.76 1510.64L4260.25 642.078L5442.6 1105.92M2452.76 1510.64L3508.53 2071.71L3525.16 2063.41M2452.76 1510.64L2506.66 2357.42L3579.04 2909.93M5442.6 1105.92L3525.16 2063.41M5442.6 1105.92L5495.55 1938L3579.04 2909.93M3525.16 2063.41L3579.04 2909.93" stroke="black" stroke-width="100"/>
<rect x="2067" y="1957" width="453" height="1076" rx="224" fill="#D9D9D9" stroke="black" stroke-width="100"/>
<path d="M3341.98 2637.49C3818.76 2637.67 4094.17 2747.53 4252.39 2925.24C4411.78 3104.25 4463 3363.65 4463 3688.99C4463 4320.6 3989.51 4809 3411 4809C3106.54 4809 2822.2 4783.27 2613.24 4634.69C2408.37 4489.01 2264 4215.56 2264 3688.99C2264 3064.79 2745.67 2665 3341.98 2637.49Z" fill="#F3C744" stroke="black" stroke-width="100"/>
<path d="M4031 2963.01C3525 2864 2574 3322.5 3088 4551" stroke="black" stroke-width="100"/>
<path d="M6188.35 1168C6647 1168.19 6911.46 1275.61 7063.38 1449.08C7216.63 1624.07 7266 1877.87 7266 2196.46C7266 2815.14 6810 3292 6254.74 3292C5961.59 3292 5688.49 3266.79 5487.87 3121.75C5291.11 2979.52 5152 2712.12 5152 2196.46C5152 1585.31 5615.64 1194.89 6188.35 1168Z" fill="#F3C744" stroke="black" stroke-width="100"/>
<path d="M6933.89 1495.04C6427.89 1396.04 5476.89 1854.53 5990.89 3083.03" stroke="black" stroke-width="100"/>
<path d="M2025 1037.5C1633 1089.5 1474.5 1358.5 1474.5 1556L1474.5 1939C1474.5 2232 1777.5 2384.5 2183 2089.5C2447.5 2476 2801.43 2441.39 3068.5 2345C3304 2260 3332.5 1915.5 3308.5 1698C3272.91 1375.45 3114 1226 3009 1160.5C2888.88 1085.57 2531.46 970.322 2025 1037.5Z" fill="#767676" stroke="black" stroke-width="100"/>
<circle cx="1736.5" cy="1720" r="308.5" fill="#3A3A3A" stroke="black" stroke-width="100"/>
<circle cx="2652.5" cy="1907" r="308.5" fill="#3A3A3A" stroke="black" stroke-width="100"/>
</svg>
