<svg width="5970" height="4480" viewBox="0 0 5970 4480" fill="none" xmlns="http://www.w3.org/2000/svg">
<path d="M165 4391V636C725.833 403 2086.5 76.8 3042.5 636C4499.3 -92.4002 5486.17 332.5 5797.5 636V4391C4919.5 3864.2 3805.33 4068.5 3358 4236.5V4311.5H2709V4236.5C2019.8 3963.3 725.833 4225.67 165 4391Z" fill="#845A00" stroke="black" stroke-width="100"/>
<path d="M359 3975.5V501.998C803 228.332 1962.3 -154.8 3047.5 501.998C4399.1 -316.402 5315.67 160.998 5605 501.998V3975.5C5576.83 3936.08 5540.43 3900.14 5497 3867.67V4118C5276.67 3910.5 4535.5 3620 3047.5 4118C2233.9 3710.8 979.667 3948.33 490 4118V3932.87C442.632 3947.11 398.802 3961.44 359 3975.5Z" fill="white"/>
<path d="M3047.5 4118C2481.5 3546 1084.28 3754.24 490 3932.87M3047.5 4118C2233.9 3710.8 979.667 3948.33 490 4118V3932.87M3047.5 4118C3595.55 3581.47 4990.06 3488.65 5497 3867.67M3047.5 4118C4535.5 3620 5276.67 3910.5 5497 4118V3867.67M490 3932.87C442.632 3947.11 398.802 3961.43 359 3975.5V501.998C803 228.332 1962.3 -154.8 3047.5 501.998C4399.1 -316.402 5315.67 160.998 5605 501.998C5605 1354.5 5605 3242.7 5605 3975.5C5576.83 3936.08 5540.43 3900.14 5497 3867.67M3047.5 696.5V3867.67" stroke="black" stroke-width="100"/>
<mask id="path-4-inside-1_69_197" fill="white">
<rect x="5558" y="584" width="412" height="702" rx="75"/>
</mask>
<rect x="5558" y="584" width="412" height="702" rx="75" fill="#E20000" stroke="black" stroke-width="200" mask="url(#path-4-inside-1_69_197)"/>
<mask id="path-5-inside-2_69_197" fill="white">
<rect x="5558" y="1382" width="412" height="702" rx="75"/>
</mask>
<rect x="5558" y="1382" width="412" height="702" rx="75" fill="#E8C500" stroke="black" stroke-width="200" mask="url(#path-5-inside-2_69_197)"/>
<mask id="path-6-inside-3_69_197" fill="white">
<rect y="2737" width="412" height="702" rx="75"/>
</mask>
<rect y="2737" width="412" height="702" rx="75" fill="#009AA6" stroke="black" stroke-width="200" mask="url(#path-6-inside-3_69_197)"/>
<path d="M860 922C1133.5 834.5 1841.5 712 2485.5 922M860 1349C1161 1236.33 1907.5 1078.6 2485.5 1349M860 1792.5C1177.33 1707.67 1946.7 1588.9 2485.5 1792.5M860 2219.5C1152.67 2132 1887.5 2009.5 2485.5 2219.5M860 2679C1196.5 2607.83 1992.7 2508.2 2485.5 2679M860 3130.5C1169.17 3042.83 1927.1 2920.1 2485.5 3130.5M3401 2104.5C3558.33 2041.67 3824 1899 4333 2014M3401 2457.5C3531 2400 3807.5 2219.5 4333 2334M3401 2786C3676.33 2654.67 4412.5 2470.8 5154.5 2786M3401 3172C3736.5 3040.67 4556.9 2856.8 5154.5 3172M3401 849.003V1687C3741.67 1592.17 4569.3 1440.9 5154.5 1594.5C5154.5 1168.5 5154.5 920.003 5154.5 849.003C4953.33 709.336 4321 513.803 3401 849.003Z" stroke="black" stroke-width="100"/>
<path d="M3732.79 1320.34L3721.12 1029.66L3837.5 1024.99C3858.89 1024.13 3876.85 1026.58 3891.39 1032.35C3905.94 1038.11 3917.03 1046.48 3924.67 1057.45C3932.31 1068.33 3936.42 1081.05 3937.01 1095.63C3937.47 1106.98 3935.6 1117.05 3931.4 1125.85C3927.2 1134.55 3921.24 1141.8 3913.51 1147.61C3905.87 1153.31 3897.04 1157.51 3887 1160.18L3887.12 1163.02C3898.21 1163.05 3908.69 1165.76 3918.58 1171.14C3928.55 1176.52 3936.78 1184.3 3943.25 1194.46C3949.72 1204.53 3953.25 1216.71 3953.82 1231C3954.44 1246.42 3951.16 1260.34 3943.98 1272.76C3936.89 1285.08 3926.06 1295.04 3911.49 1302.64C3896.92 1310.24 3878.75 1314.48 3856.98 1315.35L3732.79 1320.34ZM3792.23 1267.63L3842.33 1265.61C3859.46 1264.93 3871.82 1261.16 3879.41 1254.32C3887 1247.38 3890.57 1238.42 3890.13 1227.44C3889.81 1219.4 3887.58 1212.38 3883.46 1206.39C3879.33 1200.39 3873.6 1195.79 3866.27 1192.58C3859.03 1189.36 3850.49 1187.95 3840.65 1188.35L3789.13 1190.42L3792.23 1267.63ZM3787.46 1148.83L3833.02 1147C3841.44 1146.66 3848.86 1144.89 3855.27 1141.7C3861.77 1138.41 3866.8 1133.94 3870.37 1128.3C3874.03 1122.65 3875.7 1116 3875.4 1108.34C3874.97 1097.83 3870.9 1089.51 3863.16 1083.38C3855.52 1077.24 3844.89 1074.45 3831.27 1074.99L3784.57 1076.87L3787.46 1148.83ZM4046.82 1016.58L4058.49 1307.26L3997.04 1309.72L3985.36 1019.05L4046.82 1016.58ZM4109.05 1305.23L4097.38 1014.55L4213.76 1009.88C4235.15 1009.02 4253.11 1011.47 4267.65 1017.24C4282.19 1023 4293.29 1031.37 4300.93 1042.34C4308.57 1053.22 4312.68 1065.94 4313.27 1080.51C4313.72 1091.87 4311.85 1101.94 4307.66 1110.73C4303.46 1119.43 4297.5 1126.69 4289.77 1132.49C4282.13 1138.2 4273.3 1142.39 4263.26 1145.07L4263.38 1147.91C4274.47 1147.94 4284.95 1150.65 4294.84 1156.03C4304.81 1161.41 4313.04 1169.18 4319.51 1179.35C4325.98 1189.42 4329.5 1201.6 4330.08 1215.89C4330.7 1231.31 4327.42 1245.23 4320.24 1257.65C4313.15 1269.97 4302.32 1279.93 4287.75 1287.53C4273.17 1295.13 4255.01 1299.36 4233.24 1300.24L4109.05 1305.23ZM4168.49 1252.51L4218.59 1250.5C4235.72 1249.81 4248.08 1246.05 4255.67 1239.2C4263.26 1232.26 4266.83 1223.31 4266.39 1212.33C4266.07 1204.29 4263.84 1197.27 4259.72 1191.27C4255.59 1185.28 4249.86 1180.68 4242.53 1177.46C4235.29 1174.25 4226.75 1172.84 4216.91 1173.23L4165.39 1175.3L4168.49 1252.51ZM4163.72 1133.72L4209.28 1131.89C4217.7 1131.55 4225.12 1129.78 4231.53 1126.59C4238.03 1123.29 4243.06 1118.83 4246.63 1113.19C4250.29 1107.54 4251.96 1100.89 4251.66 1093.22C4251.23 1082.72 4247.16 1074.4 4239.42 1068.27C4231.78 1062.13 4221.15 1059.34 4207.53 1059.88L4160.83 1061.76L4163.72 1133.72ZM4373.29 1294.61L4361.62 1003.94L4423.08 1001.47L4432.72 1241.47L4557.33 1236.47L4559.37 1287.14L4373.29 1294.61ZM4600.06 1285.5L4588.39 994.829L4784.25 986.962L4786.29 1037.63L4651.88 1043.03L4654.66 1112.29L4778.99 1107.3L4781.03 1157.97L4656.7 1162.96L4659.49 1232.37L4794.46 1226.94L4796.5 1277.61L4600.06 1285.5Z" fill="black"/>
</svg>
