<svg width="5311" height="4107" viewBox="0 0 5311 4107" fill="none" xmlns="http://www.w3.org/2000/svg">
<rect x="50.0001" y="50" width="4757.51" height="561.424" fill="#B2B2B2"/>
<rect x="50.0001" y="660.445" width="4757.51" height="3362.71" fill="white"/>
<path d="M50.0001 630.681V4057H4807.51V630.681M50.0001 630.681V50.582H4807.51V630.681M50.0001 630.681H4807.51" stroke="black" stroke-width="100"/>
<path d="M3249.3 1188.02H658.112V2024.32H3249.3V1188.02Z" fill="#C9DDE5"/>
<path d="M658.112 2474.27H2927.15M658.112 2841.94H2927.15M658.112 3209.61H2927.15M658.112 3567.94H2927.15M658.112 1188.02H3249.3V2024.32H658.112V1188.02Z" stroke="black" stroke-width="100"/>
<circle cx="352.305" cy="340.633" r="58.36" fill="black"/>
<circle cx="612.591" cy="340.633" r="58.36" fill="black"/>
<circle cx="872.877" cy="340.633" r="58.36" fill="black"/>
<path d="M2897.29 3011.33L4310.19 1156.25L4845.37 1563.86L3432.47 3418.95L2897.29 3011.33Z" fill="#FFC917" stroke="black" stroke-width="100"/>
<path d="M3403.57 3396.15L2927.57 3033.62L2855.88 3610.4L3403.57 3396.15Z" fill="#EDBB7F" stroke="black" stroke-width="100"/>
<rect x="4435.39" y="929.732" width="742.524" height="259.129" transform="rotate(37.2943 4435.39 929.732)" fill="#838383" stroke="black" stroke-width="100"/>
<rect x="4647.76" y="649.353" width="745.414" height="373.902" transform="rotate(37.2943 4647.76 649.353)" fill="#F43C3C" stroke="black" stroke-width="100"/>
</svg>
