<svg width="5011" height="4928" viewBox="0 0 5011 4928" fill="none" xmlns="http://www.w3.org/2000/svg">
<path d="M50 1873.3C50 1753.79 143 1684.02 320.719 1684.02C320.719 1271.72 548.246 1092.89 597.957 1011C597.957 1011 775.724 62.3978 944.98 51.183C1230.8 32.2447 1511.94 747.663 1511.94 747.663L2062.24 747.674C2062.24 747.674 2554.8 16.6957 2713.74 51.183C2872.68 85.6704 2980.21 699.687 3042.11 1011C3206.3 1107.53 3323.49 1404.42 3323.49 1684.02C3469 1684.02 3593.08 1764.7 3593.08 1873.3C3593.08 1981.9 3454.46 2072.15 3323.49 2088.4C3457.33 2109.43 3593.08 2181.13 3593.08 2308.28C3593.08 2435.42 3411.44 2487.05 3259.44 2507.12C3323.49 2812.08 3079.99 3116.27 2803.7 3236.72C2112.59 3538.04 1098.69 3450.29 717.247 3141.51C412.094 2894.48 363.738 2711.92 384.771 2507.12C224.643 2507.12 50 2465.06 50 2308.28C50 2151.49 227.989 2088.4 384.771 2088.4C278.019 2059.72 50 2024.35 50 1873.3Z" fill="white" stroke="black" stroke-width="100"/>
<ellipse cx="1280.23" cy="1588.75" rx="125.235" ry="135.751" fill="black"/>
<ellipse cx="2353.23" cy="1588.75" rx="125.235" ry="135.751" fill="black"/>
<path d="M2169.41 2046.14C2169.41 2164.41 2054 2260.28 1829.08 2260.28C1604.16 2260.28 1505 2164.41 1505 2046.14C1505 1927.87 1604.16 1832 1829.08 1832C2054 1832 2169.41 1927.87 2169.41 2046.14Z" fill="black"/>
<path d="M2126.16 2029.68C2140.81 1974.19 2211.83 1958.11 2248.95 2001.88L2969.33 2851.21C3003.82 2891.87 2982.86 2954.61 2930.87 2966.38L1926.2 3193.85C1874.2 3205.62 1828.26 3158.03 1841.87 3106.48L2126.16 2029.68Z" fill="black"/>
<path d="M4333.81 2017.69C4319.16 1962.2 4248.14 1946.12 4211.02 1989.88L3490.63 2839.22C3456.15 2879.88 3477.11 2942.62 3529.1 2954.39L4533.77 3181.86C4585.77 3193.63 4631.7 3146.03 4618.1 3094.49L4333.81 2017.69Z" fill="black"/>
<path d="M4759.71 3635.23C4759.71 4349.06 4640.51 4927.72 3230.29 4927.74C1949.03 4927.75 1700.87 4349.06 1700.87 3635.23C1862.81 2517.33 2385.62 2342.72 3230.29 2342.72C4074.97 2342.72 4648 2575.06 4759.71 3635.23Z" fill="black"/>
<circle cx="2535.33" cy="3512.33" r="457.326" fill="#FCDF00"/>
<circle cx="3984.33" cy="3512.33" r="457.326" fill="#FCDF00"/>
<circle cx="3984.33" cy="3512.33" r="334.373" fill="black"/>
<circle cx="2535.33" cy="3512.33" r="334.373" fill="black"/>
</svg>
