<svg width="4831" height="5199" viewBox="0 0 4831 5199" fill="none" xmlns="http://www.w3.org/2000/svg">
<path d="M50 5149V2042L2400 66L4781 2042V5149H50Z" fill="white"/>
<path d="M50 2042V5149M50 2042H4781M50 2042L1657.47 3469.15M50 2042L2400 66L4781 2042M50 5149H4781M50 5149L1657.47 3469.15M4781 5149V2042M4781 5149L3014.5 3469.15M4781 2042L3014.5 3469.15M3014.5 3469.15L2304 2793.5L1657.47 3469.15" stroke="black" stroke-width="100"/>
<rect x="942" y="1009" width="2947" height="3840" fill="#F2F2F2" stroke="black" stroke-width="100"/>
<path d="M1271 1830H3518M1271 2143H3518M1271 2472H3518M1271 2793H3518M1271 3106H3518M1271 3460H3518" stroke="black" stroke-width="100"/>
<path d="M1239.5 1443H2162.5" stroke="black" stroke-width="100"/>
<path d="M50 5149V2042L1663 3469.15L2300 2826.5L3002 3469.15L4781 2042V5149H50Z" fill="white"/>
<path d="M50 5149V2042L1663 3469.15M50 5149H4781M50 5149L1663 3469.15M4781 5149V2042L3002 3469.15M4781 5149L3002 3469.15M3002 3469.15L2300 2826.5L1663 3469.15" stroke="black" stroke-width="100"/>
</svg>
