<svg width="4681" height="6940" viewBox="0 0 4681 6940" fill="none" xmlns="http://www.w3.org/2000/svg">
<path d="M4325.18 6082.28L449.159 6886.73L229.762 6740.47L156.629 3063.67C156.629 2924.13 327.765 2585.5 1034.22 2498.78C1740.67 2412.07 2131.21 2546.29 2131.21 2864.45L4105.78 2718.18V3063.67L4617.71 3010.71L4325.18 6082.28Z" fill="#FCDF00"/>
<path d="M449.159 6886.73L668.557 3862.68L2131.21 3668.9L2496.87 3230.11L4105.78 3063.67M449.159 6886.73L4325.18 6082.28L4617.71 3010.71L4105.78 3063.67M449.159 6886.73L229.762 6740.47L156.629 3063.67C156.629 2924.13 327.765 2585.5 1034.22 2498.78C1740.67 2412.07 2131.21 2546.29 2131.21 2864.45L4105.78 2718.18V3063.67" stroke="black" stroke-width="100"/>
<path d="M2301.63 620.575C2308.04 575.965 2372.44 575.968 2378.84 620.574L2543.78 1769.14C2556.53 1857.93 2648.74 1911.48 2732.07 1878.8L2733.05 1878.42L3810.21 1446.97C3852.04 1430.22 3884.24 1485.99 3848.81 1513.84L2936.59 2230.96V2230.96C2865.8 2286.62 2865.8 2393.86 2936.59 2449.51L3848.81 3166.64C3883.97 3194.27 3852.54 3249.39 3811.19 3233.88L3810.21 3233.5L2733.05 2802.06C2649.46 2768.58 2556.58 2822.2 2543.78 2911.34L2378.84 4059.9C2372.44 4104.51 2308.04 4104.51 2301.63 4059.9L2136.7 2911.34C2123.9 2822.2 2031.02 2768.58 1947.42 2802.06H1947.42L870.269 3233.5C828.432 3250.26 796.236 3194.49 831.664 3166.64L1743.88 2449.51C1814.67 2393.86 1814.67 2286.62 1743.88 2230.96L831.664 1513.84C796.234 1485.99 828.434 1430.22 870.268 1446.97L1947.42 1878.42C2031.02 1911.9 2123.9 1858.28 2136.7 1769.14L2301.63 620.575Z" fill="#FFF9CC" stroke="black" stroke-width="100"/>
<path d="M449.159 6886.73L681 3415L2496.87 3230.11L4105.78 3063.67L4617.71 3010.71L4325.18 6082.27L449.159 6886.73Z" fill="#FCDF00"/>
<path d="M449.159 6886.73L681 3415L2496.87 3230.11L4105.78 3063.67L4617.71 3010.71L4325.18 6082.27L449.159 6886.73ZM449.159 6886.73L229.762 6740.46" stroke="black" stroke-width="100"/>
</svg>
