<svg width="5000" height="6647" viewBox="0 0 5000 6647" fill="none" xmlns="http://www.w3.org/2000/svg">
<path d="M4651.41 5788.68L774.59 6593L555.148 6446.76L482 2770.6C482 2631.08 653.171 2292.51 1359.77 2205.81C2066.37 2119.11 2456.98 2253.31 2456.98 2571.41L4431.97 2425.17V2770.6L4944 2717.65L4651.41 5788.68Z" fill="#FCDF00"/>
<path d="M774.59 6593L994.033 3569.47L2456.98 3375.73L2822.72 2937.01L4431.97 2770.6M774.59 6593L4651.41 5788.68L4944 2717.65L4431.97 2770.6M774.59 6593L555.148 6446.76L482 2770.6C482 2631.08 653.171 2292.51 1359.77 2205.81C2066.37 2119.11 2456.98 2253.31 2456.98 2571.41L4431.97 2425.17V2770.6" stroke="black" stroke-width="100"/>
<path d="M749.397 6593.02L981.238 3121.29L2797.11 2936.4L4406.02 2769.96L4917.95 2717L4625.42 5788.56L749.397 6593.02Z" fill="#FCDF00"/>
<path d="M749.397 6593.02L981.238 3121.29L2797.11 2936.4L4406.02 2769.96L4917.95 2717L4625.42 5788.56L749.397 6593.02ZM749.397 6593.02L530 6446.75" stroke="black" stroke-width="100"/>
</svg>
