<svg width="4568" height="4517" viewBox="0 0 4568 4517" fill="none" xmlns="http://www.w3.org/2000/svg">
<path d="M4219.41 3658.68L342.59 4463L123.148 4316.76L50 640.597C50 501.081 221.171 162.511 927.77 75.809C1634.37 -10.8932 2024.98 123.309 2024.98 441.408L3999.97 295.169V640.597L4512 587.648L4219.41 3658.68Z" fill="#FCDF00"/>
<path d="M342.59 4463L562.033 1439.47L2024.98 1245.73L2390.72 807.007L3999.97 640.597M342.59 4463L4219.41 3658.68L4512 587.648L3999.97 640.597M342.59 4463L123.148 4316.76L50 640.597C50 501.081 221.171 162.511 927.77 75.809C1634.37 -10.8932 2024.98 123.309 2024.98 441.408L3999.97 295.169V640.597" stroke="black" stroke-width="100"/>
<path d="M317.397 4463.02L549.238 991.289L2365.11 806.397L3974.02 639.958L4485.95 587L4193.42 3658.56L317.397 4463.02Z" fill="#FCDF00"/>
<path d="M317.397 4463.02L549.238 991.289L2365.11 806.397L3974.02 639.958L4485.95 587L4193.42 3658.56L317.397 4463.02ZM317.397 4463.02L98 4316.75" stroke="black" stroke-width="100"/>
</svg>
