<svg width="3752" height="5079" viewBox="0 0 3752 5079" fill="none" xmlns="http://www.w3.org/2000/svg">
<path d="M726.501 831.023L415.419 526.992V82.3516H3098.19L3705.84 526.992L3639.06 4350.82L2801.63 5025.25H296.792V4350.82L52.0742 4099.05L89.4041 3447.02L726.501 2816.97V831.023Z" fill="#D9D9D9"/>
<rect x="1082.38" y="1023.48" width="1941.15" height="1598.55" fill="#61BDAC"/>
<path d="M388.458 513.306L736.041 816.093V2819.88M388.458 513.306V50H3087.41M388.458 513.306H3087.41M736.041 2819.88L50 3434.58M736.041 2819.88H3354.53M50 3434.58H2428.33H2606.27M50 3434.58V4120.2L308.406 4342.94M2606.27 3434.58L3354.53 2819.88M2606.27 3434.58V4342.94M3354.53 2819.88V816.093L3087.41 513.306M3087.41 513.306V50M308.406 4342.94H2606.27M308.406 4342.94V5028.56H2846.84M2606.27 4342.94L2846.84 4120.2V5028.56M2846.84 5028.56L3701.69 4342.94V513.306L3087.41 50M1074.5 1003.16V2597.14H3018.14V1003.16H1074.5Z" stroke="black" stroke-width="100"/>
<rect x="875.82" y="2743.98" width="140.195" height="421.413" fill="#636363" stroke="black" stroke-width="100" stroke-linejoin="round"/>
<circle cx="946.332" cy="2622.03" r="192.23" fill="#FF0101" stroke="black" stroke-width="100"/>
<path d="M1772.98 3168.29L1817.78 3038.47L1682.98 3099.85L1772.98 3168.29Z" stroke="black" stroke-width="100"/>
<path d="M2439.94 3168.29L2484.74 3038.47L2569.35 3099.85L2439.94 3168.29Z" stroke="black" stroke-width="100"/>
<path d="M2249.98 2944.73H2053.37L2157.07 2878.36L2249.98 2944.73Z" stroke="black" stroke-width="100"/>
<path d="M2189.5 3279.04H1999.45L2073.28 3360.75L2189.5 3279.04Z" stroke="black" stroke-width="100"/>
<rect x="1489" y="1357" width="116.137" height="255.502" fill="black"/>
<rect x="2453" y="1357" width="116.137" height="255.502" fill="black"/>
<path d="M1547 1791C1547 1900.5 1686 2125.5 1996 2125.5C2348.5 2125.5 2494 1903 2494 1775.5" stroke="black" stroke-width="100"/>
</svg>
