<svg width="3942" height="5598" viewBox="0 0 3942 5598" fill="none" xmlns="http://www.w3.org/2000/svg">
<path d="M50 5547.48V627.437H232.653V450.099L456.379 324.465H3892V5157.04L3738.34 5324.72H3536.84V5547.48H50Z" fill="#F0F0F0"/>
<path d="M232.653 627.437H3536.84V5324.72M232.653 627.437H50V5547.48H3536.84V5324.72M232.653 627.437V450.099M232.653 450.099H3738.34M232.653 450.099L456.379 324.465H3892M3738.34 450.099V5324.72M3738.34 450.099L3892 324.465M3738.34 5324.72H3536.84M3738.34 5324.72L3892 5157.04V324.465" stroke="black" stroke-width="100"/>
<circle cx="470.392" cy="999.989" r="117.903" fill="#F0F0F0" stroke="black" stroke-width="100"/>
<circle cx="993.225" cy="999.989" r="117.903" fill="#F0F0F0" stroke="black" stroke-width="100"/>
<circle cx="1516.06" cy="999.989" r="117.903" fill="#F0F0F0" stroke="black" stroke-width="100"/>
<circle cx="2038.89" cy="999.989" r="117.903" fill="#F0F0F0" stroke="black" stroke-width="100"/>
<circle cx="2561.72" cy="999.989" r="117.903" fill="#F0F0F0" stroke="black" stroke-width="100"/>
<circle cx="3084.56" cy="999.989" r="117.903" fill="#F0F0F0" stroke="black" stroke-width="100"/>
<path d="M522.584 1026.08C294.506 774.332 334.127 50.4844 604.725 50.4844C793.659 50.4844 825.073 195.447 825.073 339.927" stroke="black" stroke-width="100"/>
<path d="M1034.66 1025.6C806.587 773.848 846.208 50 1116.81 50C1305.74 50 1337.15 194.963 1337.15 339.443" stroke="black" stroke-width="100"/>
<path d="M1557.5 1025.6C1329.42 773.848 1369.04 50 1639.64 50C1828.57 50 1859.99 194.963 1859.99 339.443" stroke="black" stroke-width="100"/>
<path d="M2080.33 1026.57C1852.25 774.813 1891.87 50.9648 2162.47 50.9648C2351.41 50.9648 2382.82 195.928 2382.82 340.407" stroke="black" stroke-width="100"/>
<path d="M2603.16 1026.57C2375.09 774.813 2414.71 50.9648 2685.3 50.9648C2874.24 50.9648 2905.65 195.928 2905.65 340.407" stroke="black" stroke-width="100"/>
<path d="M3126 1026.57C2897.92 774.813 2937.54 50.9648 3208.14 50.9648C3397.07 50.9648 3428.49 195.928 3428.49 340.407" stroke="black" stroke-width="100"/>
<path d="M472.325 1736.4H1668.75M472.325 2025.84H1668.75M472.325 2347.66H1668.75M472.325 2715.87H2976.8M472.325 3011.59H2976.8M472.325 3320.85H2976.8M472.325 3596.76H2976.8M2010.38 4188.21H2976.8M2010.38 4464.6H2976.8M2043.24 4786.42H2976.8" stroke="black" stroke-width="100"/>
</svg>
