<svg width="5570" height="5762" viewBox="0 0 5570 5762" fill="none" xmlns="http://www.w3.org/2000/svg">
<path d="M3797.66 2849.09C3916.52 2730.23 3971.29 2541.9 3916.52 2420.12C3564.21 2420.12 2859.58 2188.69 2859.58 1262.96C2859.58 337.235 3673.36 69.2892 4080.25 51.0326C4560.17 32.7759 5520 249.603 5520 1262.96C5520 2276.32 4773.03 2456.64 4399.55 2420.12C4375.27 2654.16 4235.24 2849.09 3797.66 2849.09Z" fill="white" stroke="black" stroke-width="100"/>
<path d="M2075.62 3422.43C1935.82 3288.22 1871.41 3075.59 1935.82 2938.09C2350.17 2938.09 3178.88 2676.79 3178.88 1631.59C3178.88 586.391 2221.8 283.865 1743.27 263.252C1178.84 242.639 50 487.449 50 1631.59C50 2775.74 928.498 2979.32 1367.75 2938.09C1396.3 3202.33 1560.99 3422.43 2075.62 3422.43Z" fill="white" stroke="black" stroke-width="100"/>
<path d="M2677.79 5042.94C2677.79 5351.61 4693.21 5533.4 4693.21 5042.94C4693.21 4188.9 4161.24 3524.39 3877.48 3398.53C3948.57 3355.42 4090.74 3217.33 4090.74 2990.86C4090.74 2650.99 3775.52 2548.44 3628.11 2548.44C3463.21 2548.44 3167.22 2675.46 3167.22 2990.86C3167.22 3254.58 3331.73 3364.4 3404.95 3398.53C2965.26 3631.34 2727.4 4550.89 2677.79 5042.94Z" fill="#6CB9F3" stroke="black" stroke-width="100"/>
<path d="M3532.55 5441.48C3443.99 5831.72 1556.17 5771.13 1517.13 5441.48C1517.13 4587.44 2026.96 3921.21 2314.79 3819.62C2198.26 3774.93 2063.67 3640.34 2063.67 3389.4C2063.67 3002.56 2434.82 2946.98 2582.23 2946.98C2747.13 2946.98 3058.85 3059.74 3058.85 3389.4C3058.85 3653.12 2912.41 3762.93 2839.19 3797.07C3278.87 4029.88 3482.94 4949.43 3532.55 5441.48Z" fill="#6CB9F3" stroke="black" stroke-width="100"/>
<circle cx="1084.22" cy="1685.52" r="124.106" fill="black"/>
<circle cx="1614.44" cy="1685.52" r="124.106" fill="black"/>
<circle cx="2144.66" cy="1685.52" r="124.106" fill="black"/>
<circle cx="3659.57" cy="1325.44" r="124.106" fill="black"/>
<circle cx="4189.79" cy="1325.44" r="124.106" fill="black"/>
<circle cx="4720.01" cy="1325.44" r="124.106" fill="black"/>
</svg>
