<svg width="4252" height="4807" viewBox="0 0 4252 4807" fill="none" xmlns="http://www.w3.org/2000/svg">
<circle cx="2141" cy="2696" r="2061" fill="#58B2B5" stroke="black" stroke-width="100"/>
<path d="M238.02 1831.88C263.239 1151.73 923.716 840.089 1250.8 769.287C2061.03 642.705 1347.29 1612.03 889.135 2112.51C661.589 2302.36 212.801 2512.04 238.02 1831.88Z" fill="#3A803F" stroke="black" stroke-width="100"/>
<path d="M50 2979.3C50.0001 2419.3 357.5 2427.3 902 2482.3C1447.29 2537.38 1099 3654.56 783.5 3917.8C555.954 4107.66 49.9999 3659.92 50 2979.3Z" fill="#3A803F" stroke="black" stroke-width="100"/>
<path d="M2542.5 2198.5C2449.03 1867 1979.3 1250 1879.5 1046.5C1761.55 805.996 1828.55 544.64 2300.5 578.996C3317 652.994 4013 1353.5 4049 1867C3866.2 1923.8 3764.03 2030 3687 2173C3558.17 2412.16 3205 3002 2921 3066C2523.82 3155.5 2660.5 2617 2542.5 2198.5Z" fill="#3A803F"/>
<path d="M2605.5 4091.5C2573.9 3706.7 2955 3563.16 3149.5 3539.5C3470.33 3539.5 3973 3589.5 3889.5 3856C3782.25 4198.29 3386.33 4438.5 3205 4478C3018.33 4509.5 2637.1 4476.3 2605.5 4091.5Z" fill="#3A803F"/>
<path d="M2542.5 2198.5C2449.03 1867 1979.3 1250 1879.5 1046.5C1761.55 805.996 1828.55 544.64 2300.5 578.996C3317 652.994 4013 1353.5 4049 1867C3866.2 1923.8 3764.03 2030 3687 2173C3558.17 2412.16 3205 3002 2921 3066C2523.82 3155.5 2660.5 2617 2542.5 2198.5Z" stroke="black" stroke-width="100"/>
<path d="M2605.5 4091.5C2573.9 3706.7 2955 3563.16 3149.5 3539.5C3470.33 3539.5 3973 3589.5 3889.5 3856C3782.25 4198.29 3386.33 4438.5 3205 4478C3018.33 4509.5 2637.1 4476.3 2605.5 4091.5Z" stroke="black" stroke-width="100"/>
<path d="M2883 50C3177.37 50.0002 3416 288.633 3416 583C3416 729.872 3333.15 934.477 3216.23 1138.92C3113.18 1319.1 2987.95 1491.89 2883.48 1612.97C2780.79 1491.31 2655.49 1318.46 2551.88 1138.48C2434.13 933.964 2350 729.694 2350 583C2350 288.632 2588.63 50 2883 50Z" fill="#E92E2E" stroke="black" stroke-width="100"/>
<circle cx="2883" cy="566.425" r="303.777" fill="white" stroke="black" stroke-width="100"/>
<path d="M1688 1871C1982.37 1871 2221 2109.63 2221 2404C2221 2550.87 2138.15 2755.48 2021.23 2959.92C1918.18 3140.1 1792.95 3312.89 1688.48 3433.97C1585.79 3312.31 1460.49 3139.46 1356.88 2959.48C1239.13 2754.96 1155 2550.69 1155 2404C1155 2109.63 1393.63 1871 1688 1871Z" fill="#E92E2E" stroke="black" stroke-width="100"/>
<circle cx="1688" cy="2387.43" r="303.777" fill="white" stroke="black" stroke-width="100"/>
<path d="M3466 2349C3760.37 2349 3999 2587.63 3999 2882C3999 3028.87 3916.15 3233.48 3799.23 3437.92C3696.18 3618.1 3570.95 3790.89 3466.48 3911.97C3363.79 3790.31 3238.49 3617.46 3134.88 3437.48C3017.13 3232.96 2933 3028.69 2933 2882C2933 2587.63 3171.63 2349 3466 2349Z" fill="#E92E2E" stroke="black" stroke-width="100"/>
<circle cx="3466" cy="2865.43" r="303.777" fill="white" stroke="black" stroke-width="100"/>
</svg>
