<svg width="5247" height="5247" viewBox="0 0 5247 5247" fill="none" xmlns="http://www.w3.org/2000/svg">
<circle cx="2623.5" cy="2623.5" r="2573.5" fill="#BC8732" stroke="black" stroke-width="100"/>
<path d="M1886.5 3269.5C2538.81 2387.5 3324.5 3165.99 3356.5 3189.99C3769.5 2894.99 4205 3009.99 4384 3189.99C4554.06 3361 4621.58 3703 4525.5 4103.5C4429.42 4504 4141.5 4699.89 3769.5 4921.49C3397.5 5143.09 2914.17 5193.49 2719 5190.99C2295.5 5185.57 1318.5 4037.5 1886.5 3269.5Z" fill="#C79B56" stroke="black" stroke-width="100"/>
<path d="M766.001 861C722.334 1233.33 719.401 1959 1057 1883C1479 1788 1324.5 1520 1574 1502.5C1823.5 1485 1645 1698.5 1853 1710.5C2061 1722.5 2973 536 3080 96.5C3236.5 96.5 3722 293 3845.5 361.5C3655.17 504.167 3236.1 882.4 3136.5 1158C3012 1502.5 2566 2239 2209.5 2465C1853 2691 1811.5 2381.5 1520.5 2465C1229.5 2548.5 1253.5 3041.5 873.001 3148.5C492.501 3255.5 53.0002 3117.5 59.0002 2387" stroke="black" stroke-width="100"/>
<path d="M3214 2049.5C3214 1888.5 3370.5 1663 3487 1663C3778 1692.5 3576.5 1990 3517 2085C3457.5 2180 3148.5 2471 3107 2305C3065.5 2139 3214 2240.5 3214 2049.5Z" fill="#B78C48" stroke="black" stroke-width="100"/>
<path d="M2054.5 1178.5C2164.5 753.996 2206 575.496 2347 471.998C2509 409.494 2617.99 471.991 2670 648.498C2731 855.498 2401 1207 2285.5 1353.5C2170 1500 1945 1617.5 1872 1581C1799 1544.5 1799 1373.5 2054.5 1178.5Z" fill="#DBAE65" stroke="black" stroke-width="100"/>
<path d="M825.5 3867.5C739.9 3753.5 861.167 3622 932.5 3570.5C984.5 3532.95 1105.7 3465.7 1324.5 3570.5C1543.3 3675.3 1324.5 3881.81 1208 3917C1122 3942.98 911.1 3981.5 825.5 3867.5Z" fill="#9A7A45"/>
<path d="M4438 2875C4267.2 2651.4 4327 2451 4438 2417.5C4533.5 2388.68 4705.51 2689.78 4723 2786C4748 2923.5 4608.8 3098.6 4438 2875Z" fill="#9A7A45"/>
<path d="M3790 2186C3766 1881.6 3904.98 1501.74 3992 1455C4160.5 1364.49 4185.85 1701 4129 1835.5C4026 2079.16 3814 2490.4 3790 2186Z" fill="#9A7A45"/>
<path d="M825.5 3867.5C739.9 3753.5 861.167 3622 932.5 3570.5C984.5 3532.95 1105.7 3465.7 1324.5 3570.5C1543.3 3675.3 1324.5 3881.81 1208 3917C1122 3942.98 911.1 3981.5 825.5 3867.5Z" stroke="black" stroke-width="100"/>
<path d="M4438 2875C4267.2 2651.4 4327 2451 4438 2417.5C4533.5 2388.68 4705.51 2689.78 4723 2786C4748 2923.5 4608.8 3098.6 4438 2875Z" stroke="black" stroke-width="100"/>
<path d="M3790 2186C3766 1881.6 3904.98 1501.74 3992 1455C4160.5 1364.49 4185.85 1701 4129 1835.5C4026 2079.16 3814 2490.4 3790 2186Z" stroke="black" stroke-width="100"/>
</svg>
