<svg width="5789" height="5718" viewBox="0 0 5789 5718" fill="none" xmlns="http://www.w3.org/2000/svg">
<path d="M640 5250.5V2962L64 2172L1708.5 187L2125.5 1007.5L2292.5 56L5459.5 445L5177.5 1369L5747 842.5L5177.5 1703.88V3564L3785.5 5664L640 5250.5Z" fill="#EFB700"/>
<path d="M640 2962V5250.5L3785.5 5664M640 2962L3785.5 3350M640 2962L2125.5 1007.5M640 2962L64 2172L1708.5 187L2125.5 1007.5M3785.5 5664V3350M3785.5 5664L5177.5 3564V1369M3785.5 3350L5177.5 1369M3785.5 3350L4449.5 2805L5747 842.5L5177.5 1369M2125.5 1007.5L5177.5 1369M2125.5 1007.5L2292.5 56L5459.5 445L5177.5 1369" stroke="black" stroke-width="100"/>
<path d="M1833 368.5L3057.5 541L3134 1603L2828 2502.5L1536.5 2320.5L1412 1392.5L1833 368.5Z" fill="white"/>
<path d="M1412 1392.5L2751.5 1555M1412 1392.5L1833 368.5L3057.5 541M1412 1392.5L1536.5 2320.5L2828 2502.5M2751.5 1555L3057.5 541M2751.5 1555L2828 2502.5M3057.5 541L3134 1603L2828 2502.5" stroke="black" stroke-width="100"/>
<circle cx="1986.5" cy="916.5" r="83.5" fill="black"/>
<circle cx="2462.5" cy="999.5" r="83.5" fill="black"/>
<circle cx="1819.5" cy="1753.5" r="83.5" fill="black"/>
<circle cx="2356.5" cy="1836.5" r="83.5" fill="black"/>
<circle cx="1902.5" cy="2093.5" r="83.5" fill="black"/>
<circle cx="2440.5" cy="2177.5" r="83.5" fill="black"/>
<path d="M4515 2225H2707V1010V646H4515V1010V2225Z" fill="#565656"/>
<path d="M2707 1010V646H4515V1010M2707 1010V2225H4515V1010M2707 1010H4515" stroke="black" stroke-width="100"/>
<path d="M3024.89 1601.39C2991.65 1601.39 2963.03 1593.54 2939.03 1577.84C2915.02 1562.15 2896.55 1540.53 2883.63 1512.98C2870.7 1485.44 2864.24 1453.97 2864.24 1418.57C2864.24 1382.57 2870.86 1350.79 2884.09 1323.24C2897.48 1295.54 2916.1 1273.92 2939.95 1258.38C2963.95 1242.69 2991.96 1234.84 3023.97 1234.84C3048.9 1234.84 3071.36 1239.45 3091.37 1248.69C3111.37 1257.92 3127.76 1270.85 3140.53 1287.47C3153.31 1304.09 3161.23 1323.47 3164.31 1345.63H3109.84C3105.68 1329.48 3096.45 1315.16 3082.14 1302.7C3067.98 1290.08 3048.9 1283.77 3024.89 1283.77C3003.66 1283.77 2985.04 1289.31 2969.03 1300.39C2953.18 1311.32 2940.8 1326.78 2931.87 1346.79C2923.1 1366.64 2918.71 1389.95 2918.71 1416.73C2918.71 1444.12 2923.02 1467.97 2931.64 1488.28C2940.41 1508.6 2952.72 1524.37 2968.57 1535.6C2984.57 1546.83 3003.35 1552.45 3024.89 1552.45C3039.05 1552.45 3051.9 1549.99 3063.44 1545.07C3074.98 1540.14 3084.75 1533.06 3092.75 1523.83C3100.76 1514.6 3106.45 1503.52 3109.84 1490.59H3164.31C3161.23 1511.52 3153.61 1530.37 3141.46 1547.14C3129.46 1563.76 3113.53 1577 3093.68 1586.84C3073.98 1596.54 3051.05 1601.39 3024.89 1601.39ZM3283.65 1597.69C3272.26 1597.69 3262.49 1593.62 3254.33 1585.46C3246.18 1577.3 3242.1 1567.53 3242.1 1556.14C3242.1 1544.76 3246.18 1534.99 3254.33 1526.83C3262.49 1518.67 3272.26 1514.6 3283.65 1514.6C3295.03 1514.6 3304.8 1518.67 3312.96 1526.83C3321.12 1534.99 3325.19 1544.76 3325.19 1556.14C3325.19 1563.69 3323.27 1570.61 3319.42 1576.92C3315.73 1583.23 3310.73 1588.31 3304.42 1592.15C3298.26 1595.85 3291.34 1597.69 3283.65 1597.69ZM3283.65 1334.55C3272.26 1334.55 3262.49 1330.48 3254.33 1322.32C3246.18 1314.16 3242.1 1304.39 3242.1 1293.01C3242.1 1281.62 3246.18 1271.85 3254.33 1263.69C3262.49 1255.54 3272.26 1251.46 3283.65 1251.46C3295.03 1251.46 3304.8 1255.54 3312.96 1263.69C3321.12 1271.85 3325.19 1281.62 3325.19 1293.01C3325.19 1300.55 3323.27 1307.47 3319.42 1313.78C3315.73 1320.09 3310.73 1325.17 3304.42 1329.01C3298.26 1332.71 3291.34 1334.55 3283.65 1334.55ZM3590.06 1099.11L3437.72 1665.09H3387.86L3540.21 1099.11H3590.06ZM3668.31 1597.69C3656.93 1597.69 3647.15 1593.62 3639 1585.46C3630.84 1577.3 3626.77 1567.53 3626.77 1556.14C3626.77 1544.76 3630.84 1534.99 3639 1526.83C3647.15 1518.67 3656.93 1514.6 3668.31 1514.6C3679.7 1514.6 3689.47 1518.67 3697.63 1526.83C3705.78 1534.99 3709.86 1544.76 3709.86 1556.14C3709.86 1563.69 3707.94 1570.61 3704.09 1576.92C3700.4 1583.23 3695.4 1588.31 3689.09 1592.15C3682.93 1595.85 3676.01 1597.69 3668.31 1597.69ZM3847.32 1597.69C3835.93 1597.69 3826.16 1593.62 3818 1585.46C3809.85 1577.3 3805.77 1567.53 3805.77 1556.14C3805.77 1544.76 3809.85 1534.99 3818 1526.83C3826.16 1518.67 3835.93 1514.6 3847.32 1514.6C3858.7 1514.6 3868.48 1518.67 3876.63 1526.83C3884.79 1534.99 3888.87 1544.76 3888.87 1556.14C3888.87 1563.69 3886.94 1570.61 3883.1 1576.92C3879.4 1583.23 3874.4 1588.31 3868.09 1592.15C3861.94 1595.85 3855.01 1597.69 3847.32 1597.69ZM4026.32 1597.69C4014.93 1597.69 4005.16 1593.62 3997.01 1585.46C3988.85 1577.3 3984.77 1567.53 3984.77 1556.14C3984.77 1544.76 3988.85 1534.99 3997.01 1526.83C4005.16 1518.67 4014.93 1514.6 4026.32 1514.6C4037.71 1514.6 4047.48 1518.67 4055.64 1526.83C4063.79 1534.99 4067.87 1544.76 4067.87 1556.14C4067.87 1563.69 4065.95 1570.61 4062.1 1576.92C4058.41 1583.23 4053.4 1588.31 4047.1 1592.15C4040.94 1595.85 4034.02 1597.69 4026.32 1597.69Z" fill="white"/>
<path d="M2321 3152.5V1947H3377.59L3787 2387V3363L2321 3152.5Z" fill="#E0E0E0"/>
<path d="M3787 2387V3363L2321 3152.5V1947H3377.59M3787 2387L3377.59 1947M3787 2387H3377.59V1947M2597.09 2387H3263.18M2597.09 2664.5H3529.82M2597.09 2942H3529.82" stroke="black" stroke-width="100"/>
<path d="M5129.03 1525.4L5223.18 1395.9C5238.82 1374.38 5270.54 1373.32 5287.59 1393.74C5299.12 1407.56 5300.25 1427.29 5290.39 1442.33L5128.15 1689.68C5125.42 1693.84 5121.76 1697.29 5117.45 1699.77C5091.35 1714.79 5060.98 1688.39 5072.22 1660.46L5119.99 1541.72C5122.32 1535.93 5125.36 1530.45 5129.03 1525.4Z" fill="#EFB700"/>
</svg>
