<svg width="4825" height="4826" viewBox="0 0 4825 4826" fill="none" xmlns="http://www.w3.org/2000/svg">
<path d="M2412.51 50.6758C3717.28 50.6758 4775.01 1108.4 4775.01 2413.18C4775.01 3717.95 3717.28 4775.68 2412.51 4775.68C1107.73 4775.68 50.0059 3717.95 50.0059 2413.18C50.0059 1108.4 1107.73 50.6758 2412.51 50.6758Z" fill="#133467" stroke="black" stroke-width="100"/>
<path d="M1633.85 2617.67C1514.6 2608.26 1330.65 2682.74 1227.25 2763.81C1032.75 2916.31 904.319 3183.38 983.981 3480.68C1110.82 3938.34 1617.57 4050.66 1867.91 3948.79C2118.25 3846.93 2315.11 3606.21 2315.11 3288.46L3155.88 2671.28C3255.7 2666.78 3532.02 2645.92 3762.61 2480.37C4166.93 2190.09 4183.31 1550.68 3911.67 1213.32C3607.71 835.816 3137.28 733.436 2729.61 968.801C2403.48 1157.09 2274.67 1593.83 2251.03 1788.66C2082.36 2018.8 1764.61 2441.15 1633.85 2617.67Z" fill="white" stroke="black" stroke-width="100"/>
<circle cx="3167.65" cy="1758.78" r="555.413" fill="#133467" stroke="black" stroke-width="100"/>
<circle cx="3166.34" cy="1757.47" r="402.425" fill="white" stroke="black" stroke-width="100"/>
<path d="M1643 2869.23C1891.98 2869.23 2093.81 3071.07 2093.81 3320.04C2093.81 3569.01 1891.98 3770.84 1643 3770.84C1394.03 3770.84 1192.2 3569.01 1192.2 3320.04C1192.2 3071.07 1394.03 2869.23 1643 2869.23Z" fill="#133467" stroke="black" stroke-width="100"/>
<path d="M156.212 3050.22C62.4689 2893.97 52.053 2456.97 58.563 2258C528.499 2455.75 1508.16 2866.63 1667.33 2928.15C1826.5 2989.67 1976.4 3191.5 1923.66 3388.35C1870.92 3585.19 1667.33 3688.71 1486.5 3612.5C1113.81 3455.44 354.44 3138.11 156.212 3050.22Z" fill="white" stroke="black" stroke-width="100"/>
</svg>
