<svg width="4915" height="5665" viewBox="0 0 4915 5665" fill="none" xmlns="http://www.w3.org/2000/svg">
<path d="M2600 5614.06C1602.66 5457.64 962.034 4277.66 1006.14 3241.16C1056.04 2657.91 1630.14 2459.06 2600 2459.06C3375.89 2459.06 4094.69 2652.67 4126.87 3241.16C4185.94 4321.17 3398.2 5614.06 2600 5614.06Z" fill="#D21212" stroke="black" stroke-width="100"/>
<path d="M1153.84 2041.08C1432.99 1976.26 1946.31 2044.86 2168.08 2087.27L3122.53 2157.97C3297.41 2178.38 3732.15 2246.13 4072.06 2353.83C4358.77 2444.67 4377.39 2580.26 4339.62 2663.58C4334.3 2678.01 4324.89 2692.01 4314.12 2703.96C4323.66 2692.71 4332.61 2679.05 4339.62 2663.58C4360.64 2606.54 4317.63 2542.69 4041.2 2571.46C4280.75 2811.01 4219.86 3086.03 4159.47 3193.6C4154.25 3143.45 4072.41 2975.51 3786.82 2704.98C3501.22 2434.45 3159.8 2460.64 3024.78 2507.55C3103.17 2630.37 3224.49 2913.64 3082.72 3064.16C2978.42 2681.81 2741.49 2560.75 2636.06 2548.01C2681.54 2727.89 2726.39 3142.5 2541.93 3361.96C2376.83 3150.43 2258.88 2760.03 2220.53 2591.26C2177.31 2548.11 2058.04 2506.29 1926.7 2684.17C1858.17 2848.48 1490.57 3015.46 1315.33 3078.41C1343.74 3036.73 1406.79 2909.82 1431.75 2735.69C1172.94 2735.53 941.124 3001.18 711.243 3025.1C804.111 2750.95 1373.38 2435.21 1646.4 2311.61C1584.77 2291.15 1399.97 2208.41 1153.84 2041.08Z" fill="#196E35" stroke="black" stroke-width="100"/>
<path d="M2463.75 529.083C1730.56 534.982 1480.91 1252.22 1447.73 1610.11C1372.21 1630.99 184.054 1839.5 295.493 2242.4C406.932 2645.31 1474.73 2781.39 2613.47 2772.23C3752.2 2763.07 4861.52 2559.74 4858.97 2242.41C4856.41 1925.08 3924.97 1610.15 3580.12 1575.98C3577.56 1258.65 3380.25 521.71 2463.75 529.083Z" fill="#B46F00" stroke="black" stroke-width="100"/>
<path d="M3566.97 1443C3292.97 1566.87 1808.08 1576.84 1506.04 1443C1519.85 1329.3 1533.08 1209.06 1475.47 1637.72C2136.47 1837.87 3349.47 1724.72 3594.97 1637.72C3574.47 1514.73 3584.47 1568.87 3566.97 1443Z" fill="black" stroke="black" stroke-width="100"/>
<path d="M1776.64 4396.74C1759.79 4343.27 1776.35 4321.34 1802.69 4313.04C1829.02 4304.74 1855.17 4313.21 1872.02 4366.68C1888.87 4420.14 1892.3 4505.5 1865.96 4513.8C1839.63 4522.1 1793.49 4450.2 1776.64 4396.74Z" fill="#EFB700"/>
<path d="M1902.48 4166.63C1884.98 4113.38 1901.27 4091.24 1927.5 4082.62C1953.73 4074 1979.98 4082.15 1997.48 4135.41C2014.98 4188.66 2019.46 4273.97 1993.22 4282.6C1966.99 4291.22 1919.98 4219.88 1902.48 4166.63Z" fill="#EFB700"/>
<path d="M2115.61 3827.61C2105.01 3772.56 2123.98 3752.67 2151.1 3747.45C2178.22 3742.24 2203.21 3753.66 2213.81 3808.71C2224.4 3863.75 2218 3948.94 2190.88 3954.16C2163.77 3959.38 2126.2 3882.65 2115.61 3827.61Z" fill="#EFB700"/>
<path d="M3159.15 4901.21C3180.21 4849.26 3206.94 4842.89 3232.54 4853.27C3258.13 4863.64 3272.88 4886.83 3251.82 4938.78C3230.76 4990.73 3179.04 5058.72 3153.45 5048.35C3127.86 5037.97 3138.09 4953.16 3159.15 4901.21Z" fill="#EFB700"/>
<path d="M3438.04 4784.73C3459.1 4732.78 3485.83 4726.42 3511.42 4736.79C3537.02 4747.17 3551.77 4770.35 3530.71 4822.3C3509.65 4874.25 3457.93 4942.25 3432.34 4931.87C3406.75 4921.5 3416.98 4836.68 3438.04 4784.73Z" fill="#EFB700"/>
<path d="M1531.48 4135.63C1513.98 4082.38 1530.27 4060.24 1556.5 4051.62C1582.73 4043 1608.98 4051.15 1626.48 4104.41C1643.98 4157.66 1648.46 4242.97 1622.22 4251.6C1595.99 4260.22 1548.98 4188.88 1531.48 4135.63Z" fill="#EFB700"/>
</svg>
