<svg width="5668" height="5268" viewBox="0 0 5668 5268" fill="none" xmlns="http://www.w3.org/2000/svg">
<path d="M1072.3 3592C243.961 3592 50.0002 2424 50 1764.29C49.9998 1104.58 140.822 50 1072.3 50C1649.9 50 1911.96 434.523 2031.13 897C2177.24 1206.33 2615.3 1741 3082.5 1741C3158 1891.83 3389.3 2270.8 2798.5 2350C2552.9 2350 2044.75 2810.79 1963.47 2915C1811.66 3305.34 1538.01 3592 1072.3 3592Z" fill="#FFCC26"/>
<path d="M2031.13 897C2104.14 1180.34 2123.51 1492.93 2128.95 1764.29C2145.21 2575.5 1949.28 3592 1072.3 3592C243.961 3592 50.0002 2424 50 1764.29C49.9998 1104.58 140.822 50 1072.3 50C1649.9 50 1911.96 434.523 2031.13 897ZM2031.13 897C2177.24 1206.33 2615.3 1741 3082.5 1741C3158 1891.83 3389.3 2270.8 2798.5 2350C2552.9 2350 2044.75 2810.79 1963.47 2915" stroke="black" stroke-width="100"/>
<path d="M1435.61 2828C1078.61 2828 993.437 2179.46 995.022 1847.58C995.022 1541.05 1034.16 928 1435.61 928C1837.05 928 1886.06 1541.05 1891 1847.58C1891 2180.67 1813.57 2828 1435.61 2828Z" fill="#C8A01F"/>
<path d="M1076.45 3382.5C437.952 3382.5 285.61 2316.5 288.443 1771C288.443 1267.17 358.45 259.504 1076.45 259.504C1794.45 259.504 1882.11 1267.17 1890.94 1771C1890.94 2318.5 1752.45 3382.5 1076.45 3382.5Z" stroke="black" stroke-width="100"/>
<path d="M3065 1643H5182L5392.5 1546.5L5585 1601V2118L5485.5 2222L5392.5 2267V2779.5L5182 3146.5L4733 3387L4660.5 2915.5L4896.5 2779.5L4960 2539L4810 2154L3228 2181L3010.5 2516.5L3105.5 2861L3309.5 2947V3264.5L3105.5 3387L2802 3264.5L2552.5 2884V2267L2754.5 1857.5L3065 1643Z" fill="#FFCC26"/>
<path d="M4742.5 2155.5H5169C5169 2180.74 5203.02 2229.13 5333.5 2236.93M4742.5 2155.5H3350.5C3193.33 2150.67 3021.5 2278.3 3021.5 2589.5C3021.5 2978.5 3440.5 2934 3575 2934C3682.6 2934 4173.5 2934 4405.5 2934C4567.67 2924.17 4937 2889.1 4937 2589.5C4937 2289.9 4792.33 2155.5 4742.5 2155.5ZM5333.5 2236.93C5345.21 2237.63 5357.69 2238 5371 2238C5532.6 2238 5603 2183 5618 2155.5C5618 2018.33 5618 1727.6 5618 1662C5618 1580 5573 1549.5 5371 1549.5C5209.4 1549.5 5169 1624.5 5169 1662H3054.5C2892.33 1711.83 2522.5 2014.7 2522.5 2589.5C2522.5 3308 3103.5 3380.5 3575 3380.5C3952.2 3380.5 4440.33 3380.5 4560 3380.5C4894.33 3330.67 5421 3230.3 5421 2589.5C5421 2355.07 5358.5 2236.94 5333.5 2236.93Z" stroke="black" stroke-width="100"/>
<path d="M3129 3419C3415.8 3293.8 3352.83 3017.5 3285.5 2895H4535.5C4800.3 3012.6 4725.5 3293.33 4655 3419V5165.5L3874 4586.5L3129 5165.5V3419Z" fill="#BF1212" stroke="black" stroke-width="100"/>
</svg>
