<svg width="5247" height="5247" viewBox="0 0 5247 5247" fill="none" xmlns="http://www.w3.org/2000/svg">
<circle cx="2623.5" cy="2623.5" r="2573.5" fill="white" stroke="black" stroke-width="100"/>
<path d="M1061 598C1569.33 877 2281 2089.8 1061 4709" stroke="black" stroke-width="100"/>
<path d="M925 4376L1260 4290L1355.5 4605.5" stroke="#BA1E1E" stroke-width="100"/>
<path d="M1061 3975L1396 3889L1491.5 4204.5" stroke="#BA1E1E" stroke-width="100"/>
<path d="M1177.62 3573.89L1505.01 3462.35L1624.52 3769.56" stroke="#BA1E1E" stroke-width="100"/>
<path d="M1335.62 3139.89L1663.01 3028.35L1782.52 3335.56" stroke="#BA1E1E" stroke-width="100"/>
<path d="M1418.44 2736.83L1723.4 2573.69L1891.14 2857.46" stroke="#BA1E1E" stroke-width="100"/>
<path d="M1478.69 2348.45L1733.13 2114.19L1966.54 2346.95" stroke="#BA1E1E" stroke-width="100"/>
<path d="M1447.69 1937.45L1702.13 1703.19L1935.54 1935.95" stroke="#BA1E1E" stroke-width="100"/>
<path d="M1387.63 1556.7L1595.88 1280.56L1867.29 1467.64" stroke="#BA1E1E" stroke-width="100"/>
<path d="M1250.86 1213.4L1355.99 883.906L1674.01 970.629" stroke="#BA1E1E" stroke-width="100"/>
<path d="M1018.45 945.995L1126.51 617.446L1443.75 706.993" stroke="#BA1E1E" stroke-width="100"/>
<path d="M4077.54 598C3569.21 877 2857.54 2089.8 4077.54 4709" stroke="black" stroke-width="100"/>
<path d="M4213.54 4376L3878.54 4290L3783.04 4605.5" stroke="#BA1E1E" stroke-width="100"/>
<path d="M4077.54 3975L3742.54 3889L3647.04 4204.5" stroke="#BA1E1E" stroke-width="100"/>
<path d="M3960.92 3573.89L3633.54 3462.35L3514.02 3769.56" stroke="#BA1E1E" stroke-width="100"/>
<path d="M3802.92 3139.89L3475.54 3028.35L3356.02 3335.56" stroke="#BA1E1E" stroke-width="100"/>
<path d="M3720.11 2736.83L3415.14 2573.69L3247.4 2857.46" stroke="#BA1E1E" stroke-width="100"/>
<path d="M3659.85 2348.45L3405.41 2114.19L3172 2346.95" stroke="#BA1E1E" stroke-width="100"/>
<path d="M3690.85 1937.45L3436.41 1703.19L3203 1935.95" stroke="#BA1E1E" stroke-width="100"/>
<path d="M3750.91 1556.7L3542.66 1280.56L3271.26 1467.64" stroke="#BA1E1E" stroke-width="100"/>
<path d="M3887.68 1213.4L3782.55 883.906L3464.53 970.629" stroke="#BA1E1E" stroke-width="100"/>
<path d="M4126.09 895.003L4018.04 566.454L3700.79 656.001" stroke="#BA1E1E" stroke-width="100"/>
</svg>
