<svg width="5521" height="5521" viewBox="0 0 5521 5521" fill="none" xmlns="http://www.w3.org/2000/svg">
<rect x="599" y="2554.37" width="778.527" height="1150.49" rx="389.264" fill="#9E1111" stroke="black" stroke-width="100"/>
<rect x="4144.27" y="2554.37" width="778.527" height="1150.49" rx="389.264" fill="#9E1111" stroke="black" stroke-width="100"/>
<rect x="1038.86" y="1716.99" width="3445.27" height="2824.01" rx="646" fill="#EFBF58" stroke="black" stroke-width="100"/>
<rect x="1503.04" y="2495.71" width="2515.73" height="1110.73" rx="281" fill="#363636"/>
<path d="M2780.37 696C2947.54 696 3085.73 836.312 3085.73 1012.74C3085.73 1189.16 2947.54 1329.48 2780.37 1329.48C2613.19 1329.48 2475 1189.16 2475 1012.74C2475 836.312 2613.19 696 2780.37 696Z" fill="#9E1111" stroke="black" stroke-width="100"/>
<path d="M2761 1310L2761 1705" stroke="black" stroke-width="100"/>
<ellipse cx="2102.9" cy="3051.7" rx="219.931" ry="226.969" fill="white"/>
<ellipse cx="3420.1" cy="3051.7" rx="219.931" ry="226.969" fill="white"/>
<path d="M3400 3897H4637C4764.58 3897 4868 4000.42 4868 4128V4685C4868 4812.58 4764.58 4916 4637 4916H3400C3272.42 4916 3169 4812.58 3169 4685V4128C3169 4000.42 3272.42 3897 3400 3897Z" fill="white" stroke="black" stroke-width="100"/>
<path d="M3828.41 4921L3611 5108.39V4921H3828.41Z" fill="white" stroke="black" stroke-width="100"/>
<path d="M3661 4999.5V4832L3817.5 4860.5L3661 4999.5Z" fill="white"/>
<path d="M3485 4219H4552" stroke="black" stroke-width="100"/>
<path d="M3485 4406H4552" stroke="black" stroke-width="100"/>
<path d="M3485 4591H4552" stroke="black" stroke-width="100"/>
</svg>
