<svg width="5521" height="5521" viewBox="0 0 5521 5521" fill="none" xmlns="http://www.w3.org/2000/svg">
<rect x="50" y="50" width="5421" height="5421" rx="607" fill="black" stroke="black" stroke-width="100"/>
<path d="M1485 2985V3135H885V2385H1485V2535H1035V2685H1335V2835H1035V2985H1485ZM1785 3135H1635V2385H2085V2535H1785V2685H2085V2835H1785V3135ZM2235 2685H2085V2535H2235V2685ZM2235 3135H2085V2835H2235V3135ZM2535 3135H2385V2385H2835V2535H2535V2685H2835V2835H2535V3135ZM2985 2685H2835V2535H2985V2685ZM2985 3135H2835V2835H2985V3135ZM3285 2535V2385H3585V2535H3285ZM3285 2985H3135V2535H3285V2985ZM3735 2985H3585V2535H3735V2985ZM3585 2985V3135H3285V2985H3585ZM4035 3135H3885V2385H4335V2535H4035V2685H4335V2835H4035V3135ZM4485 2685H4335V2535H4485V2685ZM4485 3135H4335V2835H4485V3135Z" fill="#FF0000"/>
</svg>
