<svg width="5418" height="5045" viewBox="0 0 5418 5045" fill="none" xmlns="http://www.w3.org/2000/svg">
<path d="M50 3042.65C50 1847.16 754.964 1039.81 1107.45 785.573C538.135 368.806 960.351 -25.6205 1188.62 216.263C1394.14 434.046 1631.02 435.269 1750.3 310.512C1916.46 136.717 2089.71 -116.056 2463.44 216.263C2751.82 472.694 2940.86 348.466 3059.44 216.263C3223.64 33.2112 3502.9 -74.113 3835.23 310.512C4037 544.036 4500.42 -271.328 4652.96 216.263C4746.36 514.81 4375.5 728 4223.67 785.573C4620.1 982.062 5367.19 1749.53 5367.19 3042.65C5367.19 4659.06 4086.38 4994.65 2723.85 4994.65C1361.32 4994.65 50 4537.02 50 3042.65Z" fill="white" fill-opacity="0.8" stroke="black" stroke-width="100"/>
<path d="M443.886 2981.1C443.886 2116.84 1007.57 1378.13 1289.41 1116.81H4071.12C4372.4 1317.48 4974.94 1971.27 4974.94 2981.1C4974.94 4243.39 3781.29 4607.31 2598.55 4607.31C1415.8 4607.31 443.886 4061.42 443.886 2981.1Z" fill="#B5DBD8" stroke="black" stroke-width="100"/>
<path d="M4098.91 1690.91C4170.38 1690.91 4230.33 1750.57 4230.33 1826.68C4230.33 1902.79 4170.38 1962.46 4098.91 1962.46C4027.44 1962.46 3967.49 1902.79 3967.49 1826.68C3967.49 1750.57 4027.44 1690.91 4098.91 1690.91Z" fill="white" stroke="black" stroke-width="100"/>
<path d="M3854.84 2111.48C3896.75 2111.48 3932.87 2146.69 3932.87 2192.78C3932.87 2238.87 3896.75 2274.08 3854.84 2274.08C3812.93 2274.08 3776.81 2238.87 3776.81 2192.78C3776.81 2146.69 3812.93 2111.48 3854.84 2111.48Z" fill="white" stroke="black" stroke-width="100"/>
<path d="M2316.65 1971.59L2063.87 1726.98C1999.58 1861.55 2037.93 1910.58 1985.42 2020.62C1659.66 2703.27 2027.92 2966.39 2448.5 3039.93C2390.44 3190.32 2357.41 3302.54 2340.57 3396.54C2164.25 3357.58 1963.08 3287.82 1770.77 3014.87C1606.78 2831.27 1549.47 2987.1 1571.92 3039.93C1671.61 3225.71 1904.24 3498.65 2326.39 3589.64C2328.86 3658.81 2338.76 3725.69 2349.89 3804.29C2302.72 3818.44 2209.02 3869.94 2118.04 3818.44C1887.04 3687.69 1873.97 3860.94 2014.53 3932.31C2227 4040.19 2422.03 3961.18 2485.23 3932.31L2349.89 4037.45C2274.39 4100.1 2226.45 4252.87 2517.37 4100.1C2636.68 4037.45 2667.73 3972.08 2708.05 3918.69C2979.36 3976.98 3081.75 4008.58 3312.77 3967.17C3396.12 3952.23 3433.72 3856.04 3364.53 3818.44C3295.34 3780.85 3222.86 3874.02 3066.83 3804.29C3078.59 3736.92 3083 3663.9 3081.75 3589.64C3770.58 3548.78 3812.18 3138.54 3846.97 3039.93C3900.81 2887.39 3678.46 2753.92 3651.4 2987.1C3614.35 3306.34 3245.16 3368.66 3066.83 3396.54C3048.37 3258.7 3014.99 3129.99 2978.03 3039.93C3643.77 2948.42 3610.36 2314.27 3425.31 2020.62L3342.5 1726.98C3223.19 1829.95 3180.7 1872.45 3066.83 1971.59C2780.05 1834.3 2447.22 1914.39 2316.65 1971.59Z" fill="#333333" stroke="black" stroke-width="100"/>
<path d="M1200.14 1708.94C1200.14 1515.26 1534.04 1582.09 1658.51 1633.79L1828.13 1544.45L1828.13 1895.68L1658.51 1787.63C1472.6 1845.53 1200.14 1925.93 1200.14 1708.94Z" fill="#FF0202" stroke="black" stroke-width="100"/>
</svg>
