<svg width="5521" height="5521" viewBox="0 0 5521 5521" fill="none" xmlns="http://www.w3.org/2000/svg">
<rect x="50" y="50" width="5421" height="5421" rx="607" fill="black" stroke="black" stroke-width="100"/>
<circle cx="2174.5" cy="1980.5" r="89" fill="#FF0000" stroke="#177E1E"/>
<circle cx="3330.5" cy="1742.5" r="89" fill="#FF0000" stroke="#177E1E"/>
<path d="M2639.5 3018.5C2688.66 3018.5 2728.5 3058.13 2728.5 3107C2728.5 3155.87 2688.66 3195.5 2639.5 3195.5C2590.34 3195.5 2550.5 3155.87 2550.5 3107C2550.5 3058.13 2590.34 3018.5 2639.5 3018.5Z" fill="#FF0000" stroke="#177E1E"/>
<path d="M3288.5 2887.5C3337.66 2887.5 3377.5 2927.13 3377.5 2976C3377.5 3024.87 3337.66 3064.5 3288.5 3064.5C3239.34 3064.5 3199.5 3024.87 3199.5 2976C3199.5 2927.13 3239.34 2887.5 3288.5 2887.5Z" fill="#FF0000" stroke="#177E1E"/>
<circle cx="2639.5" cy="4036.5" r="89" fill="#FF0000" stroke="#177E1E"/>
<circle cx="1995.5" cy="4304.5" r="89" fill="#FF0000" stroke="#177E1E"/>
<circle cx="4009.5" cy="2693.5" r="89" fill="#FF0000" stroke="#177E1E"/>
<circle cx="3789.5" cy="3718.5" r="89" fill="#FF0000" stroke="#177E1E"/>
<circle cx="1715.5" cy="2693.5" r="89" fill="#FF0000" stroke="#177E1E"/>
<circle cx="1132.5" cy="2324.5" r="89" fill="#FF0000" stroke="#177E1E"/>
<circle cx="3610.5" cy="1078.5" r="89" fill="#FF0000" stroke="#177E1E"/>
<circle cx="4408.5" cy="1078.5" r="89" fill="#FF0000" stroke="#177E1E"/>
<circle cx="2460.5" cy="1257.5" r="89" fill="#FF0000" stroke="#177E1E"/>
<path d="M2859.5 1109.5C2908.66 1109.5 2948.5 1149.13 2948.5 1198C2948.5 1246.87 2908.66 1286.5 2859.5 1286.5C2810.34 1286.5 2770.5 1246.87 2770.5 1198C2770.5 1149.13 2810.34 1109.5 2859.5 1109.5Z" fill="#FF0000" stroke="#177E1E"/>
<line x1="2361.95" y1="1931.63" x2="3148.53" y2="1782.63" stroke="#177E1E" stroke-width="100"/>
<line x1="2570.9" y1="1248.82" x2="2764.6" y2="1226.08" stroke="#177E1E" stroke-width="100"/>
<line x1="2676.48" y1="1251.08" x2="2702.28" y2="1444.4" stroke="#177E1E" stroke-width="100"/>
<line x1="2785.88" y1="3075.6" x2="3149.76" y2="3016" stroke="#177E1E" stroke-width="100"/>
<line x1="3405.68" y1="2929.93" x2="3858.96" y2="2737.01" stroke="#177E1E" stroke-width="100"/>
<line x1="3990.16" y1="2836.86" x2="3838.15" y2="3587.37" stroke="#177E1E" stroke-width="100"/>
<line x1="2662.68" y1="3237.68" x2="2665.15" y2="3881.53" stroke="#177E1E" stroke-width="100"/>
<line x1="3566.06" y1="1213.77" x2="3425.69" y2="1638.83" stroke="#177E1E" stroke-width="100"/>
<line x1="2109.42" y1="2095.29" x2="1818.47" y2="2595.63" stroke="#177E1E" stroke-width="100"/>
<line x1="4289.96" y1="1089.68" x2="3720.61" y2="1095.17" stroke="#177E1E" stroke-width="100"/>
<line x1="1546.72" y1="2642.24" x2="1218.91" y2="2362.27" stroke="#177E1E" stroke-width="100"/>
<line x1="2540.37" y1="4129.83" x2="2152.96" y2="4300.01" stroke="#177E1E" stroke-width="100"/>
<line x1="4628.95" y1="875.223" x2="4494.06" y2="974.82" stroke="#177E1E" stroke-width="100"/>
<line x1="4706.69" y1="1095.17" x2="4527.89" y2="1095.17" stroke="#177E1E" stroke-width="100"/>
<line x1="4642.46" y1="1299.02" x2="4499.73" y2="1201.77" stroke="#177E1E" stroke-width="100"/>
<line y1="-50" x2="167.673" y2="-50" transform="matrix(0.804468 0.593997 0.593997 -0.804468 920.439 2070.16)" stroke="#177E1E" stroke-width="100"/>
<line y1="-50" x2="178.804" y2="-50" transform="matrix(1 6.47332e-08 6.47332e-08 -1 813 2280.33)" stroke="#177E1E" stroke-width="100"/>
<line y1="-50" x2="172.708" y2="-50" transform="matrix(0.826419 -0.563055 -0.563055 -0.826419 849.074 2492.86)" stroke="#177E1E" stroke-width="100"/>
<line x1="3772.89" y1="3992.17" x2="3768.18" y2="3828.27" stroke="#177E1E" stroke-width="100"/>
<line x1="4242.9" y1="3992.09" x2="3744.92" y2="4004.64" stroke="#177E1E" stroke-width="100"/>
<line x1="4228.51" y1="3990.35" x2="3805.03" y2="3875.07" stroke="#177E1E" stroke-width="100"/>
<line x1="1754.63" y1="4219.97" x2="1883.01" y2="4321.97" stroke="#177E1E" stroke-width="100"/>
<line x1="1451.86" y1="4579.48" x2="1763.11" y2="4190.55" stroke="#177E1E" stroke-width="100"/>
<line x1="1462.46" y1="4569.59" x2="1823.48" y2="4320" stroke="#177E1E" stroke-width="100"/>
<line x1="2257.15" y1="2053.91" x2="2567.42" y2="2959.79" stroke="#177E1E" stroke-width="100"/>
<line x1="3338.88" y1="1895.09" x2="3267.3" y2="2849.95" stroke="#177E1E" stroke-width="100"/>
</svg>
