<svg width="4396" height="5262" viewBox="0 0 4396 5262" fill="none" xmlns="http://www.w3.org/2000/svg">
<path d="M58.5 5212C116.1 4839.6 225.5 2024.83 273 664H606V329H973.5V50.5H4343.5L4191.5 4548H3958.39L3950.5 4801H3672.63L3657.5 5212H58.5Z" fill="#FDFDFD"/>
<path d="M3800.5 1326.5L3174 664M3800.5 1326.5H3174V664M3800.5 1326.5L3672.63 4801M3174 664H606M606 664H273C225.5 2024.83 116.1 4839.6 58.5 5212C989.3 5212 2845.67 5212 3657.5 5212L3672.63 4801M606 664V329H973.5M3672.63 4801H3950.5L3958.39 4548M973.5 329H4090L3958.39 4548M973.5 329V50.5H4343.5L4191.5 4548H3958.39M1965 1326.5H2889M1965 1608H2889M1965 1891.5H2889M606 2378H3359.5M606 2758.5H3359.5M606 3100H3359.5M606 3489H3359.5M606 3846H3359.5M606 4204.5H3359.5" stroke="black" stroke-width="100"/>
<circle cx="1089.5" cy="1283.5" r="201.5" fill="#6B7F83" stroke="black" stroke-width="100"/>
<mask id="path-4-inside-1_49_77" fill="white">
<path d="M1612 2125.5C1612 2047.95 1598.49 1971.17 1572.23 1899.53C1545.97 1827.88 1507.48 1762.79 1458.96 1707.95C1410.44 1653.12 1352.84 1609.62 1289.45 1579.95C1226.06 1550.27 1158.12 1535 1089.5 1535C1020.88 1535 952.94 1550.27 889.548 1579.95C826.155 1609.62 768.555 1653.12 720.037 1707.95C671.518 1762.79 633.031 1827.88 606.773 1899.53C580.515 1971.17 567 2047.95 567 2125.5L1089.5 2125.5H1612Z"/>
</mask>
<path d="M1612 2125.5C1612 2047.95 1598.49 1971.17 1572.23 1899.53C1545.97 1827.88 1507.48 1762.79 1458.96 1707.95C1410.44 1653.12 1352.84 1609.62 1289.45 1579.95C1226.06 1550.27 1158.12 1535 1089.5 1535C1020.88 1535 952.94 1550.27 889.548 1579.95C826.155 1609.62 768.555 1653.12 720.037 1707.95C671.518 1762.79 633.031 1827.88 606.773 1899.53C580.515 1971.17 567 2047.95 567 2125.5L1089.5 2125.5H1612Z" fill="#6B7F83" stroke="black" stroke-width="200" mask="url(#path-4-inside-1_49_77)"/>
</svg>
