<svg width="5163" height="5255" viewBox="0 0 5163 5255" fill="none" xmlns="http://www.w3.org/2000/svg">
<g filter="url(#filter0_d_69_229)">
<ellipse cx="2581.38" cy="2623.5" rx="2577.38" ry="2623.5" fill="#5D1616"/>
<path d="M2581.38 50C3976.38 50 5108.76 1201.36 5108.76 2623.5C5108.76 4045.64 3976.38 5197 2581.38 5197C1186.38 5197 54 4045.64 54 2623.5C54 1201.36 1186.38 50 2581.38 50Z" stroke="black" stroke-width="100"/>
</g>
<path d="M4376.05 2988C3250.5 4768.74 1307.92 4237.74 783 2988C1207.5 3998.65 1664 4351.13 2569 4351.13C3419.5 4351.13 4161.5 3592.24 4376.05 2988Z" fill="black" stroke="black" stroke-width="100"/>
<path d="M1344.43 3133.73C951.686 3016.96 973.024 2597.63 1032.79 2402.57L2013.44 2999.6C1954.08 3092.97 1737.17 3250.51 1344.43 3133.73Z" fill="#CD1414" stroke="black" stroke-width="100"/>
<path d="M4226.23 2401.26C3984.62 2673.73 3500.67 2897.03 3288.89 2974.61C3288.89 3242.88 3713.64 3291.54 3936.25 3182.39C4158.85 3073.24 4293.61 2815.49 4226.23 2401.26Z" fill="#CD1414" stroke="black" stroke-width="100"/>
<path d="M3985.72 1623.84C3985.72 1623.84 4132.37 1484.68 4245.34 1166.84C4358.31 849.007 4860.86 957.887 4924.48 1161.9C5014.12 1449.37 4770.54 1860.42 4616.59 2028.51C4415.3 2248.29 3658.21 3068.47 3171.52 3055.64C2782.16 3045.38 2921.21 2637.29 3039.4 2434.52C3039.4 2434.52 3241.19 1462.28 3637.82 1459.39C3844.24 1457.89 3985.72 1623.84 3985.72 1623.84Z" fill="#272727"/>
<path d="M1740.48 1882.49C1895.11 1893.15 2106.03 2259.07 2192.17 2440.7C2306.42 2681.62 2268.9 3062.23 2089.28 3063.53C1909.65 3064.82 1323.18 2856.3 1136.87 2448.38C993.517 2571.21 799.719 2501.58 720.739 2451.41C600.041 2416.83 332.028 2208.37 225.568 1651.23C119.108 1094.09 360.695 1012.89 494.796 1041.93C628.897 1070.97 882.262 1121.5 950.5 1264.5C1043.5 1459.39 1272.5 1751 1312.99 2052.57C1391.06 1991.43 1585.85 1871.83 1740.48 1882.49Z" fill="#272727"/>
<path d="M3985.72 1623.84C3985.72 1623.84 4132.37 1484.68 4245.34 1166.84C4358.31 849.007 4860.86 957.887 4924.48 1161.9C5014.12 1449.37 4770.54 1860.42 4616.59 2028.51C4415.3 2248.29 3658.21 3068.47 3171.52 3055.64C2782.16 3045.38 2921.21 2637.29 3039.4 2434.52C3039.4 2434.52 3241.19 1462.28 3637.82 1459.39C3844.24 1457.89 3985.72 1623.84 3985.72 1623.84Z" stroke="black" stroke-width="100"/>
<path d="M1740.48 1882.49C1895.11 1893.15 2106.03 2259.07 2192.17 2440.7C2306.42 2681.62 2268.9 3062.23 2089.28 3063.53C1909.65 3064.82 1323.18 2856.3 1136.87 2448.38C993.517 2571.21 799.719 2501.58 720.739 2451.41C600.041 2416.83 332.028 2208.37 225.568 1651.23C119.108 1094.09 360.695 1012.89 494.796 1041.93C628.897 1070.97 882.262 1121.5 950.5 1264.5C1043.5 1459.39 1272.5 1751 1312.99 2052.57C1391.06 1991.43 1585.85 1871.83 1740.48 1882.49Z" stroke="black" stroke-width="100"/>
<path d="M2585.37 2789H2585.37C2852.5 2789 3122 2804.5 2921.08 3290.62C3158.5 3143.5 3327.04 3352.08 3327.04 3522.07C3327.04 3941.5 3043.5 3581.5 2921.08 3741.68C2921.08 4004 2726 4034.93 2585.37 4034.93C2461.5 4034.93 2268.17 4034.93 2268.17 3741.68C2162.5 3576.5 1834 3952 1834 3522.07C1834 3344.32 2025.83 3138.5 2268.17 3290.62C2053 2789 2353.6 2789 2585.37 2789Z" fill="#4A1B1B" stroke="black" stroke-width="100"/>
<path d="M3800 4413.71C3862.57 4150.71 3826.07 3946 3800 3718.06L4269.27 3267C4310.18 3616.36 4273.6 4081.27 3800 4413.71Z" fill="#B8B8B8" stroke="black" stroke-width="100"/>
<path d="M1368.75 4459.71C1306.18 4196.71 1412.91 3992 1438.98 3764.06L969.71 3313C928.799 3662.36 895.15 4127.27 1368.75 4459.71Z" fill="#B8B8B8" stroke="black" stroke-width="100"/>
<path d="M1874 4542C1874 4765.5 2057 5037.5 2482 4765.5C2574 4846.5 2664.5 4839.5 2749 4765.5C3227 5028 3372 4765.5 3372 4542" stroke="black" stroke-width="100"/>
<path d="M2580 1725V2623.5" stroke="black" stroke-width="100"/>
<path d="M826.5 2718C667.667 2669.33 383.8 2679.5 519 3109.5" stroke="black" stroke-width="100"/>
<path d="M4376 2717.88C4534.83 2669.22 4818.7 2679.38 4683.5 3109.38" stroke="black" stroke-width="100"/>
<defs>
<filter id="filter0_d_69_229" x="0" y="0" width="5162.76" height="5255" filterUnits="userSpaceOnUse" color-interpolation-filters="sRGB">
<feFlood flood-opacity="0" result="BackgroundImageFix"/>
<feColorMatrix in="SourceAlpha" type="matrix" values="0 0 0 0 0 0 0 0 0 0 0 0 0 0 0 0 0 0 127 0" result="hardAlpha"/>
<feOffset dy="4"/>
<feGaussianBlur stdDeviation="2"/>
<feComposite in2="hardAlpha" operator="out"/>
<feColorMatrix type="matrix" values="0 0 0 0 0 0 0 0 0 0 0 0 0 0 0 0 0 0 0.25 0"/>
<feBlend mode="normal" in2="BackgroundImageFix" result="effect1_dropShadow_69_229"/>
<feBlend mode="normal" in="SourceGraphic" in2="effect1_dropShadow_69_229" result="shape"/>
</filter>
</defs>
</svg>
