<svg width="5375" height="4513" viewBox="0 0 5375 4513" fill="none" xmlns="http://www.w3.org/2000/svg">
<path d="M5320 571.871L1467.45 723.159C1467.45 1299.11 1088.7 3455.69 899.329 4461.98C1977.03 4445.05 4248.72 4388.45 4713.79 4297.47C4966.43 3933.53 5223.2 1662.1 5320 571.871Z" fill="#DDBC37" stroke="black" stroke-width="100"/>
<path d="M1038.45 319.018L5092.54 54C5046.17 938.1 4918.08 2789.67 4776.74 3123.13L3652.66 4007.06C2802.06 4108.09 969.577 4267.21 444.407 4095.4C570.833 3426.24 962.806 976.01 1038.45 319.018Z" fill="#F3D55C"/>
<path d="M4776.74 3123.13C4918.08 2789.67 5046.17 938.1 5092.54 54L1038.45 319.018C962.806 976.01 570.833 3426.24 444.407 4095.4C969.577 4267.21 2802.06 4108.09 3652.66 4007.06M4776.74 3123.13C4322.24 3052.46 3985.21 2937.99 3829.34 2832.72L3652.66 4007.06M4776.74 3123.13L3652.66 4007.06" stroke="black" stroke-width="100"/>
<path d="M53.5923 1058.28C87.5741 619.935 294.599 558.858 407.081 565.403C607.754 577.078 776.213 586.88 856.459 774.091L1308.5 800.392C1330.77 660.564 1440.68 362.722 1697.12 377.643C1922.4 390.75 1998.04 931.036 1998.04 1153.77L2800.16 1218.08L1998.04 1252.16C1998.03 1591.27 1801.62 1965.29 1606.56 1934.18C1380.6 1898.14 1287.69 1610.33 1266.85 1516.21L814.811 1489.91C691.662 1657.6 505.775 1646.79 344.709 1637.42C234.868 1631.03 25.1101 1547.82 53.5923 1058.28Z" fill="#F23A3A"/>
<path d="M407.081 565.403C294.599 558.858 87.5741 619.935 53.5923 1058.28C25.1101 1547.82 234.868 1631.03 344.709 1637.42M407.081 565.403C519.563 571.947 728.862 617.506 701.025 1095.95C673.188 1574.4 454.551 1643.81 344.709 1637.42M407.081 565.403C607.754 577.078 776.213 586.88 856.459 774.091M344.709 1637.42C505.775 1646.79 691.662 1657.6 814.811 1489.91M814.811 1489.91C872.143 1405.14 900.042 1281.79 910.147 1108.12C919.268 951.352 881.494 857.277 856.459 774.091M814.811 1489.91L1266.85 1516.21M856.459 774.091C919.971 777.786 1119.6 789.401 1308.5 800.392M1266.85 1516.21L1353.99 1521.28C1484.99 1373.39 1524.35 988.338 1410.95 806.352C1381.43 804.635 1336.99 802.05 1308.5 800.392M1266.85 1516.21C1287.69 1610.33 1380.6 1898.14 1606.56 1934.18C1801.62 1965.29 1998.03 1591.27 1998.04 1252.16M1308.5 800.392C1330.77 660.564 1440.68 362.722 1697.12 377.643C1922.4 390.75 1998.04 931.036 1998.04 1153.77M1998.04 1252.16L2800.17 1218.08L1998.04 1153.77M1998.04 1252.16L1998.04 1153.77" stroke="black" stroke-width="100"/>
</svg>
