<svg width="5805" height="6244" viewBox="0 0 5805 6244" fill="none" xmlns="http://www.w3.org/2000/svg">
<path d="M1220.12 50.793H4949.87L5461.8 489.588V3122.36L4876.74 3780.55H5754.33V5243.2L5169.27 5608.86H4949.87V5828.26L4437.95 6193.92H50V5901.39L781.324 5096.93V4073.08L1293.25 3853.68L927.589 3488.02V343.323L1220.12 50.793Z" fill="#DADADA"/>
<rect x="1433" y="636" width="3151" height="2534" fill="#54A8A8"/>
<path d="M4857.66 3770.48L5162.91 3469.9M4857.66 3770.48H4590.57M4857.66 3770.48H5162.91H5754.33M5162.91 3469.9V295.015M5162.91 3469.9L5468.16 3112.96V528.592L5162.91 295.015M5162.91 295.015L4933.98 50.793H1232.84L927.589 295.015V3469.9L1232.84 3770.48H1709.79M1709.79 3770.48V4033.49M1709.79 3770.48H4590.57M1709.79 4033.49H4590.57M1709.79 4033.49H774.965M4590.57 4033.49V3770.48M4590.57 4033.49H5162.91M774.965 4033.49V5047.95M774.965 4033.49L1510.87 3804.93M5162.91 4033.49V5630.33M5162.91 4033.49L5754.33 3770.48M5162.91 5630.33H4933.98M5162.91 5630.33L5754.33 5235.82V3770.48M4933.98 5630.33V5047.95M4933.98 5630.33V5855.77L4418.87 6193.92M4933.98 5047.95H774.965M4933.98 5047.95L4418.87 5855.77M774.965 5047.95L50 5855.77M50 5855.77V6193.92H4418.87M50 5855.77H4418.87M4418.87 6193.92V5855.77M1441.3 3203.19H4590.57V670.741H1441.3V3203.19ZM3197.87 4446.79V4597.08H4781.35V4446.79H3197.87Z" stroke="black" stroke-width="100"/>
<path d="M2974.12 1464C2597.38 1464 2611.18 1904.63 2710.16 2014.69C2503.2 2048.96 2277.23 2542.81 2310.23 2854.44C2322.17 2967.19 3656.5 3009.57 3656.5 2854.44C3656.5 2660.53 3516.03 2075.57 3261.57 2014.69C3337.06 1896.98 3384.05 1464 2974.12 1464Z" fill="#D9D9D9" fill-opacity="0.4" stroke="black" stroke-width="100"/>
</svg>
