<svg width="5170" height="4535" viewBox="0 0 5170 4535" fill="none" xmlns="http://www.w3.org/2000/svg">
<path d="M830.75 4128.5V1991.31L2529 520.5L4336.75 1991.31V4128.5H830.75Z" fill="#ADADAD" stroke="black" stroke-width="100"/>
<rect x="1353" y="2128" width="2441" height="1983" fill="#333333" stroke="black" stroke-width="100"/>
<path d="M1376 2394H3791M1376 2676.5H3791M1376 2959H3791M1376 3241.5H3791M1376 3512H3791" stroke="black" stroke-width="100"/>
<path d="M752.5 4238V3728H1305V4238H752.5Z" fill="#FFA600" stroke="black" stroke-width="100"/>
<path d="M1305 4238V3161.5H1765V4046.5H2381V4238H1765H1305Z" fill="#272727"/>
<path d="M1765 4238H1305V3161.5H1765V4046.5M1765 4238V4046.5M1765 4238H2381V4046.5H1765" stroke="black" stroke-width="100"/>
<circle cx="855.5" cy="4283.5" r="201.5" fill="black" stroke="black" stroke-width="100"/>
<circle cx="1556.5" cy="4283.5" r="201.5" fill="black" stroke="black" stroke-width="100"/>
<rect x="1765" y="3614" width="544" height="431" fill="#AE813A" stroke="black" stroke-width="100"/>
<rect x="1765" y="3179" width="544" height="431" fill="#AE813A" stroke="black" stroke-width="100"/>
<rect x="2797" y="3830" width="686" height="488" fill="#AE813A" stroke="black" stroke-width="100"/>
<rect x="3478" y="3830" width="686" height="488" fill="#AE813A" stroke="black" stroke-width="100"/>
<rect x="3316" y="3341" width="686" height="488" fill="#AE813A" stroke="black" stroke-width="100"/>
<path d="M71 2084L2532.5 64.5L5096.5 2084L4744.5 2481L2532.5 688.5L398 2481L71 2084Z" fill="#737373" stroke="black" stroke-width="100"/>
</svg>
