<svg width="2887" height="376" viewBox="0 0 2887 376" fill="none" xmlns="http://www.w3.org/2000/svg">
<circle cx="692.5" cy="188.5" r="148.5" stroke="black" stroke-width="20"/>
<ellipse cx="625" cy="155.5" rx="13" ry="14.5" fill="black"/>
<ellipse cx="758" cy="155.5" rx="13" ry="14.5" fill="black"/>
<path d="M706 170.5C706 177 700.18 178 693 178C685.82 178 680 177 680 170.5C680 163 685.82 163 693 163C700.18 163 706 163 706 170.5Z" fill="black"/>
<path d="M693 192C718.258 192 741.414 193.89 758.044 196.788C766.436 198.251 772.71 199.894 776.659 201.477C777.147 201.672 777.566 201.854 777.924 202.02C777.613 208.56 776.02 221.231 767.866 233.176C758.248 247.266 737.96 262.5 693 262.5C648.04 262.5 627.752 247.266 618.134 233.176C609.98 221.231 608.386 208.56 608.075 202.02C608.434 201.854 608.853 201.672 609.341 201.477C613.29 199.894 619.564 198.251 627.956 196.788C644.586 193.89 667.742 192 693 192Z" stroke="black" stroke-width="20"/>
<path d="M1332 40V337H1075V125.016L1156.43 40H1332Z" stroke="black" stroke-width="20"/>
<circle cx="1714.5" cy="188.5" r="148.5" stroke="black" stroke-width="20"/>
<circle cx="1715" cy="188" r="117" stroke="black" stroke-width="20"/>
<circle cx="1711.84" cy="186.5" r="15.5" stroke="black" stroke-width="20"/>
<rect x="1694.11" y="202" width="22.6917" height="61.7351" rx="10" transform="rotate(13.2151 1694.11 202)" stroke="black" stroke-width="20"/>
<rect x="1769.66" y="109" width="22.6917" height="71.8524" rx="10" transform="rotate(43.3511 1769.66 109)" stroke="black" stroke-width="20"/>
<path d="M218.35 129.518C220.351 135.709 226.116 139.905 232.623 139.905H334.202L251.954 199.981C246.725 203.801 244.537 210.545 246.528 216.707L277.919 313.836L195.848 253.889L195.348 253.539C190.3 250.156 183.7 250.156 178.652 253.539L178.152 253.889L96.0801 313.836L127.472 216.707C129.463 210.545 127.275 203.801 122.046 199.981L39.7979 139.905H141.377C147.884 139.905 153.649 135.709 155.65 129.518L187 32.5166L218.35 129.518Z" stroke="black" stroke-width="20"/>
<mask id="path-13-inside-1_143_2" fill="white">
<rect x="2087" y="30" width="280" height="317" rx="10"/>
</mask>
<rect x="2087" y="30" width="280" height="317" rx="10" stroke="black" stroke-width="40" mask="url(#path-13-inside-1_143_2)"/>
<mask id="path-14-inside-2_143_2" fill="white">
<rect x="2144" y="34" width="166" height="75" rx="10"/>
</mask>
<rect x="2144" y="34" width="166" height="75" rx="10" stroke="black" stroke-width="40" mask="url(#path-14-inside-2_143_2)"/>
<path d="M2608 136.453L2647.59 170.951C2667.5 146.279 2695.32 80.7661 2782.47 97.7863C2904.6 121.635 2877.74 240.412 2862.92 281.625C2845 281.625 2824 276 2812.3 265.305C2825 233.5 2838.61 168.303 2782.47 151.039C2727.45 134.119 2700.38 187.159 2687.42 206.376L2722.84 241.106L2608 250.611V136.453Z" stroke="black" stroke-width="20"/>
</svg>
