<svg width="7745" height="555" viewBox="0 0 7745 555" fill="none" xmlns="http://www.w3.org/2000/svg">
<path d="M1970.82 428.064V191.588C1970.82 150.415 1979.67 126.911 1999.66 126.911H2116.95C2126.56 126.911 2145.79 135.134 2145.79 191.588H2288.07V428.064H1970.82Z" stroke="black" stroke-width="20"/>
<path d="M2785.96 168.863C2859.83 168.863 2918.72 225.283 2918.72 293.695C2918.72 362.107 2859.83 418.527 2785.96 418.527C2712.09 418.527 2653.2 362.107 2653.2 293.695C2653.2 225.284 2712.09 168.864 2785.96 168.863Z" stroke="black" stroke-width="20"/>
<path d="M2910.14 460.251L2846.95 389.471L2879.99 361.705C2894.83 376.904 2928.51 412.302 2944.59 432.306C2938.84 451.132 2919.23 458.781 2910.14 460.251Z" fill="#C8C8C8"/>
<path d="M2707.75 270.513C2667.55 284.633 2651.81 260.614 2657.55 241.983C2668.33 207.022 2684.87 186.42 2730.71 171.967C2808.22 158.168 2825.93 175.89 2808.22 198.442C2791.48 216.583 2747.94 256.393 2707.75 270.513Z" fill="#C8C8C8"/>
<path d="M2714.51 394.102C2666.66 371.115 2658.94 336.551 2660.38 313.759C2660.38 302.646 2667.55 310.52 2707.75 329.347C2755.72 351.821 2784.21 386.749 2773.78 400.816C2763.83 414.245 2738.13 405.447 2714.51 394.102Z" fill="#C8C8C8"/>
<path d="M2864.2 263.159C2838.94 213.739 2831.45 172.991 2864.2 177.851C2896.96 182.711 2922.77 254.684 2926.6 286.67C2930.42 318.656 2922.48 350.527 2902.96 346.997C2878.56 342.584 2895.78 324.934 2864.2 263.159Z" fill="#C8C8C8"/>
<path d="M2910.14 460.251L2846.95 389.471L2879.99 361.705C2894.83 376.904 2928.51 412.302 2944.59 432.306C2938.84 451.132 2919.23 458.781 2910.14 460.251Z" stroke="black" stroke-width="20"/>
<path d="M2707.75 270.513C2667.55 284.633 2651.81 260.614 2657.55 241.983C2668.33 207.022 2684.87 186.42 2730.71 171.967C2808.22 158.168 2825.93 175.89 2808.22 198.442C2791.48 216.583 2747.94 256.393 2707.75 270.513Z" stroke="black" stroke-width="20"/>
<path d="M2714.51 394.102C2666.66 371.115 2658.94 336.551 2660.38 313.759C2660.38 302.646 2667.55 310.52 2707.75 329.347C2755.72 351.821 2784.21 386.749 2773.78 400.816C2763.83 414.245 2738.13 405.447 2714.51 394.102Z" stroke="black" stroke-width="20"/>
<path d="M2864.2 263.159C2838.94 213.739 2831.45 172.991 2864.2 177.851C2896.96 182.711 2922.77 254.684 2926.6 286.67C2930.42 318.656 2922.48 350.527 2902.96 346.997C2878.56 342.584 2895.78 324.934 2864.2 263.159Z" stroke="black" stroke-width="20"/>
<circle cx="2835.6" cy="339.228" r="70.3425" fill="#D9D9D9" stroke="black" stroke-width="20"/>
<path d="M3801.8 301.163V175.704C3801.8 165.61 3801.8 158.399 3840.15 158.399C3870.83 158.399 3871.4 168.243 3871.4 175.704H3992.15V301.163H3801.8Z" fill="#C8C8C8" stroke="black" stroke-width="20"/>
<path d="M3881.11 396.338V270.88C3881.11 260.785 3881.11 253.575 3919.46 253.575C3950.15 253.575 3950.71 263.172 3950.71 270.88H4071.46V396.338H3881.11Z" fill="#C8C8C8" stroke="black" stroke-width="20"/>
<path d="M6727.46 244.762L6767.06 279.261C6786.97 254.588 6814.78 189.076 6901.94 206.096C7024.06 229.944 6997.2 348.721 6982.38 389.934C6952.56 394.637 6930.27 382.921 6931.76 373.615C6945.68 336.388 6958.07 276.612 6901.94 259.349C6846.92 242.428 6819.85 295.468 6806.88 314.686L6842.31 349.416L6727.46 358.92V244.762Z" stroke="black" stroke-width="20"/>
<path d="M5099.39 184.263C5174.49 184.263 5232.15 234.68 5232.15 293.232C5232.15 351.785 5174.49 402.201 5099.39 402.201C5024.28 402.201 4966.62 351.784 4966.62 293.232C4966.62 234.68 5024.28 184.263 5099.39 184.263Z" stroke="black" stroke-width="20"/>
<path d="M5099.39 215.987C5174.49 215.987 5232.15 266.405 5232.15 324.957C5232.15 383.509 5174.49 433.926 5099.39 433.926C5024.28 433.926 4966.62 383.509 4966.62 324.957C4966.62 266.405 5024.28 215.988 5099.39 215.987Z" stroke="black" stroke-width="20"/>
<path d="M5184.76 158.399L5210.43 179.282V266.024L5107.76 285.3L5083.52 266.024C5088.2 260.762 5132.07 214.202 5165.04 179.282C5172.33 171.561 5179.08 164.41 5184.76 158.399Z" fill="#C7C7C7"/>
<path d="M5210.43 179.282L5184.76 158.399C5179.08 164.41 5172.33 171.561 5165.04 179.282C5132.07 214.202 5088.2 260.762 5083.52 266.024L5107.76 285.3M5210.43 179.282L5107.76 285.3M5210.43 179.282V266.024L5107.76 285.3" stroke="black" stroke-width="20"/>
<path d="M7303 225.725V194H7572.66V225.725M7303 225.725V431.939H7572.66V225.725M7303 225.725H7572.66" stroke="black" stroke-width="20"/>
<path d="M6377.3 198.224L6580.5 400.2M6377.29 400.2L6580.5 198.224" stroke="black" stroke-width="20"/>
<path d="M5644.95 372.949H5502.18V343.267V166.735H5598.33L5644.95 230.786V372.949Z" fill="#C8C8C8"/>
<path d="M5644.95 230.787V372.949H5502.18V343.267M5644.95 230.787L5598.33 166.735M5644.95 230.787H5598.33M5598.33 166.735H5502.18V343.267M5598.33 166.735V230.787M5502.18 343.267L5598.33 230.787" stroke="black" stroke-width="20"/>
<path d="M5581.5 432.026V313.991H5771.07V432.026H5759.4H5632.31H5581.5Z" fill="#C8C8C8"/>
<path d="M5740.44 277.516L5697.14 220.668H5740.44H5744.82H5782.34L5740.44 277.516Z" fill="#C8C8C8"/>
<path d="M5938.76 328.534V166.735H6061.25V211.922H6068.54H6086.58V319.788H6177.5L6211.45 360V388.082V432.026H6100.62H6071.64V352.194H5983.97V328.534H5938.76Z" fill="#C8C8C8"/>
<path d="M6150.2 226.499H6189.58H6228.97L6189.58 277.516L6150.2 226.499Z" fill="#C8C8C8"/>
<path d="M5759.4 432.026H5771.07V313.991H5581.5V432.026H5632.31M5759.4 432.026V362.059H5632.31V432.026M5759.4 432.026H5632.31M5686.02 182.769C5709.64 182.769 5744.82 181.02 5744.82 220.668C5743.33 220.668 5741.87 220.668 5740.44 220.668M5740.44 220.668C5707.37 220.668 5700.4 220.668 5697.14 220.668L5740.44 277.516L5782.34 220.668H5740.44ZM5983.97 328.534V211.922H6068.54M5983.97 328.534V352.194H6086.58V211.922H6068.54M5983.97 328.534L6068.54 259.118V211.922M6211.45 360L6177.5 319.788M6211.45 360H6177.5V319.788M6211.45 360V388.082M6177.5 319.788H6071.64V432.026H6100.62M6211.45 388.082V432.026H6100.62M6211.45 388.082H6117.6L6100.62 403.827V432.026M6128.49 182.769C6149.39 180.34 6189.58 197.346 6189.58 226.499M6189.58 226.499C6161.58 226.499 6154.58 226.499 6150.2 226.499L6189.58 277.516L6228.97 226.499H6189.58ZM5938.76 166.735V328.534H6061.25V166.735H5938.76Z" stroke="black" stroke-width="20"/>
<path d="M1189.75 285.744H1110.44L1150.1 333.332L1189.75 285.744Z" fill="#4F4F4F"/>
<path d="M1824.2 285.526H1744.88L1784.54 333.114L1824.2 285.526Z" fill="#4F4F4F"/>
<path d="M2496.4 55.1357V499.288" stroke="#909090" stroke-width="20"/>
<path d="M5350.76 55.1357V499.288" stroke="#909090" stroke-width="20"/>
<path d="M7125.7 63.0078V507.16" stroke="#909090" stroke-width="20"/>
<path d="M475.966 275.497V348.012H291.442V388.802C252.487 358.587 174.577 305.863 174.577 309.489C174.577 313.114 252.487 255.858 291.442 230.176V275.497H475.966Z" stroke="black" stroke-width="20"/>
<path d="M1348.46 275.497V348.012H1532.98V388.802C1571.94 358.587 1649.85 305.863 1649.85 309.489C1649.85 313.114 1571.94 255.858 1532.98 230.176V275.497H1348.46Z" stroke="black" stroke-width="20"/>
<path d="M588.578 368.607V223.153H639.43C649.562 223.153 657.919 224.905 664.501 228.409C671.082 231.865 675.983 236.529 679.203 242.4C682.422 248.224 684.032 254.687 684.032 261.789C684.032 268.039 682.919 273.2 680.694 277.272C678.516 281.344 675.628 284.564 672.029 286.931C668.478 289.299 664.619 291.051 660.453 292.187V293.607C664.903 293.892 669.378 295.454 673.876 298.295C678.374 301.136 682.138 305.208 685.168 310.511C688.199 315.814 689.714 322.301 689.714 329.971C689.714 337.263 688.057 343.82 684.742 349.644C681.428 355.468 676.196 360.085 669.046 363.494C661.897 366.903 652.593 368.607 641.134 368.607H588.578ZM606.191 352.982H641.134C652.64 352.982 660.808 350.757 665.637 346.306C670.514 341.808 672.953 336.363 672.953 329.971C672.953 325.047 671.698 320.501 669.188 316.335C666.679 312.121 663.104 308.759 658.464 306.249C653.824 303.693 648.331 302.414 641.987 302.414H606.191V352.982ZM606.191 287.073H638.862C644.165 287.073 648.947 286.032 653.208 283.948C657.517 281.865 660.926 278.929 663.435 275.142C665.992 271.354 667.271 266.903 667.271 261.789C667.271 255.397 665.045 249.976 660.595 245.525C656.144 241.027 649.089 238.778 639.43 238.778H606.191V287.073ZM748.485 371.164C741.572 371.164 735.299 369.862 729.664 367.258C724.03 364.606 719.555 360.795 716.241 355.823C712.926 350.804 711.269 344.744 711.269 337.642C711.269 331.392 712.5 326.325 714.962 322.443C717.425 318.513 720.715 315.435 724.835 313.21C728.954 310.984 733.499 309.327 738.471 308.238C743.49 307.102 748.533 306.202 753.599 305.539C760.228 304.687 765.602 304.048 769.721 303.622C773.888 303.148 776.918 302.367 778.812 301.278C780.753 300.189 781.724 298.295 781.724 295.596V295.028C781.724 288.02 779.806 282.575 775.971 278.693C772.183 274.81 766.43 272.869 758.712 272.869C750.711 272.869 744.437 274.621 739.891 278.124C735.346 281.628 732.15 285.369 730.303 289.346L714.394 283.664C717.235 277.035 721.023 271.874 725.758 268.181C730.54 264.441 735.748 261.837 741.383 260.369C747.065 258.854 752.652 258.096 758.144 258.096C761.648 258.096 765.673 258.522 770.218 259.374C774.811 260.179 779.238 261.86 783.499 264.417C787.808 266.974 791.383 270.833 794.224 275.994C797.065 281.155 798.485 288.068 798.485 296.732V368.607H781.724V353.835H780.872C779.735 356.202 777.841 358.735 775.19 361.434C772.538 364.133 769.011 366.429 764.607 368.323C760.204 370.217 754.83 371.164 748.485 371.164ZM751.042 356.107C757.671 356.107 763.258 354.805 767.803 352.201C772.396 349.597 775.853 346.235 778.173 342.116C780.54 337.997 781.724 333.664 781.724 329.119V313.778C781.014 314.63 779.451 315.411 777.036 316.122C774.669 316.785 771.923 317.376 768.798 317.897C765.72 318.371 762.713 318.797 759.778 319.176C756.89 319.507 754.546 319.791 752.747 320.028C748.39 320.596 744.319 321.519 740.531 322.798C736.79 324.029 733.76 325.899 731.44 328.409C729.167 330.871 728.031 334.232 728.031 338.494C728.031 344.318 730.185 348.721 734.494 351.704C738.85 354.64 744.366 356.107 751.042 356.107ZM873.396 370.88C863.169 370.88 854.362 368.465 846.976 363.636C839.59 358.806 833.908 352.154 829.93 343.678C825.953 335.203 823.965 325.52 823.965 314.63C823.965 303.551 826.001 293.773 830.073 285.298C834.192 276.775 839.921 270.123 847.26 265.34C854.646 260.511 863.264 258.096 873.112 258.096C880.783 258.096 887.696 259.517 893.851 262.357C900.006 265.198 905.049 269.176 908.979 274.289C912.909 279.403 915.347 285.369 916.294 292.187H899.533C898.254 287.215 895.413 282.812 891.01 278.977C886.654 275.094 880.783 273.153 873.396 273.153C866.862 273.153 861.133 274.857 856.209 278.267C851.332 281.628 847.52 286.387 844.774 292.542C842.075 298.65 840.726 305.823 840.726 314.062C840.726 322.49 842.052 329.829 844.703 336.079C847.402 342.329 851.19 347.182 856.067 350.639C860.991 354.095 866.768 355.823 873.396 355.823C877.752 355.823 881.706 355.066 885.257 353.551C888.808 352.035 891.815 349.857 894.277 347.017C896.739 344.176 898.491 340.767 899.533 336.789H916.294C915.347 343.229 913.003 349.029 909.263 354.19C905.57 359.303 900.669 363.375 894.561 366.406C888.501 369.389 881.446 370.88 873.396 370.88ZM956.422 328.835L956.138 308.096H959.547L1007.27 259.517H1028.01L977.161 310.937H975.74L956.422 328.835ZM940.797 368.607V223.153H957.558V368.607H940.797ZM1010.12 368.607L967.502 314.63L979.433 302.982L1031.42 368.607H1010.12Z" fill="black"/>
<path d="M3141.84 259.517C3140.98 252.32 3137.53 246.732 3131.47 242.755C3125.41 238.778 3117.97 236.789 3109.17 236.789C3102.73 236.789 3097.09 237.831 3092.26 239.914C3087.48 241.998 3083.74 244.862 3081.04 248.508C3078.39 252.154 3077.06 256.297 3077.06 260.937C3077.06 264.82 3077.99 268.158 3079.83 270.951C3081.73 273.697 3084.14 275.994 3087.08 277.84C3090.01 279.64 3093.09 281.131 3096.31 282.315C3099.53 283.451 3102.49 284.374 3105.19 285.085L3119.96 289.062C3123.75 290.056 3127.96 291.429 3132.6 293.181C3137.29 294.933 3141.77 297.324 3146.03 300.355C3150.34 303.338 3153.89 307.173 3156.68 311.86C3159.47 316.548 3160.87 322.301 3160.87 329.119C3160.87 336.979 3158.81 344.081 3154.69 350.426C3150.62 356.77 3144.65 361.813 3136.79 365.553C3128.98 369.294 3119.49 371.164 3108.31 371.164C3097.9 371.164 3088.88 369.483 3081.25 366.122C3073.68 362.76 3067.71 358.072 3063.36 352.059C3059.05 346.046 3056.61 339.062 3056.04 331.107H3074.22C3074.7 336.6 3076.54 341.145 3079.76 344.744C3083.03 348.295 3087.15 350.946 3092.12 352.698C3097.14 354.403 3102.54 355.255 3108.31 355.255C3115.04 355.255 3121.07 354.166 3126.42 351.988C3131.78 349.763 3136.01 346.685 3139.14 342.755C3142.26 338.778 3143.83 334.138 3143.83 328.835C3143.83 324.005 3142.48 320.075 3139.78 317.045C3137.08 314.015 3133.53 311.552 3129.12 309.659C3124.72 307.765 3119.96 306.107 3114.85 304.687L3096.95 299.573C3085.59 296.306 3076.59 291.642 3069.96 285.582C3063.33 279.521 3060.02 271.59 3060.02 261.789C3060.02 253.645 3062.22 246.543 3066.62 240.482C3071.07 234.374 3077.04 229.64 3084.52 226.278C3092.05 222.869 3100.45 221.164 3109.73 221.164C3119.11 221.164 3127.44 222.845 3134.73 226.207C3142.03 229.521 3147.8 234.067 3152.06 239.843C3156.37 245.62 3158.65 252.177 3158.88 259.517H3141.84ZM3233.3 370.88C3222.78 370.88 3213.72 368.56 3206.09 363.92C3198.52 359.232 3192.67 352.698 3188.55 344.318C3184.48 335.89 3182.44 326.088 3182.44 314.914C3182.44 303.74 3184.48 293.892 3188.55 285.369C3192.67 276.799 3198.4 270.123 3205.74 265.34C3213.13 260.511 3221.74 258.096 3231.59 258.096C3237.27 258.096 3242.88 259.043 3248.42 260.937C3253.96 262.831 3259.01 265.909 3263.55 270.17C3268.1 274.384 3271.72 279.971 3274.42 286.931C3277.12 293.892 3278.47 302.462 3278.47 312.642V319.744H3194.38V305.255H3261.42C3261.42 299.1 3260.19 293.607 3257.73 288.778C3255.31 283.948 3251.86 280.137 3247.36 277.343C3242.91 274.55 3237.65 273.153 3231.59 273.153C3224.92 273.153 3219.14 274.81 3214.26 278.124C3209.43 281.392 3205.72 285.653 3203.11 290.909C3200.51 296.164 3199.21 301.799 3199.21 307.812V317.471C3199.21 325.71 3200.63 332.694 3203.47 338.423C3206.36 344.105 3210.36 348.437 3215.47 351.42C3220.58 354.356 3226.53 355.823 3233.3 355.823C3237.7 355.823 3241.68 355.208 3245.23 353.977C3248.83 352.698 3251.93 350.804 3254.53 348.295C3257.14 345.738 3259.15 342.566 3260.57 338.778L3276.76 343.323C3275.06 348.816 3272.19 353.645 3268.17 357.812C3264.14 361.931 3259.17 365.151 3253.25 367.471C3247.34 369.744 3240.68 370.88 3233.3 370.88ZM3336.07 371.164C3329.15 371.164 3322.88 369.862 3317.25 367.258C3311.61 364.606 3307.14 360.795 3303.82 355.823C3300.51 350.804 3298.85 344.744 3298.85 337.642C3298.85 331.392 3300.08 326.325 3302.54 322.443C3305.01 318.513 3308.3 315.435 3312.42 313.21C3316.53 310.984 3321.08 309.327 3326.05 308.238C3331.07 307.102 3336.11 306.202 3341.18 305.539C3347.81 304.687 3353.18 304.048 3357.3 303.622C3361.47 303.148 3364.5 302.367 3366.39 301.278C3368.33 300.189 3369.3 298.295 3369.3 295.596V295.028C3369.3 288.02 3367.39 282.575 3363.55 278.693C3359.76 274.81 3354.01 272.869 3346.29 272.869C3338.29 272.869 3332.02 274.621 3327.47 278.124C3322.93 281.628 3319.73 285.369 3317.88 289.346L3301.98 283.664C3304.82 277.035 3308.6 271.874 3313.34 268.181C3318.12 264.441 3323.33 261.837 3328.96 260.369C3334.65 258.854 3340.23 258.096 3345.73 258.096C3349.23 258.096 3353.25 258.522 3357.8 259.374C3362.39 260.179 3366.82 261.86 3371.08 264.417C3375.39 266.974 3378.96 270.833 3381.8 275.994C3384.65 281.155 3386.07 288.068 3386.07 296.732V368.607H3369.3V353.835H3368.45C3367.32 356.202 3365.42 358.735 3362.77 361.434C3360.12 364.133 3356.59 366.429 3352.19 368.323C3347.78 370.217 3342.41 371.164 3336.07 371.164ZM3338.62 356.107C3345.25 356.107 3350.84 354.805 3355.38 352.201C3359.98 349.597 3363.43 346.235 3365.75 342.116C3368.12 337.997 3369.3 333.664 3369.3 329.119V313.778C3368.59 314.63 3367.03 315.411 3364.62 316.122C3362.25 316.785 3359.5 317.376 3356.38 317.897C3353.3 318.371 3350.29 318.797 3347.36 319.176C3344.47 319.507 3342.13 319.791 3340.33 320.028C3335.97 320.596 3331.9 321.519 3328.11 322.798C3324.37 324.029 3321.34 325.899 3319.02 328.409C3316.75 330.871 3315.61 334.232 3315.61 338.494C3315.61 344.318 3317.77 348.721 3322.07 351.704C3326.43 354.64 3331.95 356.107 3338.62 356.107ZM3416.66 368.607V259.517H3432.85V275.994H3433.99C3435.98 270.596 3439.58 266.216 3444.78 262.855C3449.99 259.493 3455.86 257.812 3462.4 257.812C3463.63 257.812 3465.17 257.836 3467.01 257.883C3468.86 257.93 3470.26 258.001 3471.2 258.096V275.142C3470.64 274.999 3469.33 274.786 3467.3 274.502C3465.31 274.171 3463.2 274.005 3460.98 274.005C3455.67 274.005 3450.94 275.118 3446.77 277.343C3442.65 279.521 3439.39 282.552 3436.97 286.434C3434.6 290.269 3433.42 294.649 3433.42 299.573V368.607H3416.66ZM3532.07 370.88C3521.84 370.88 3513.04 368.465 3505.65 363.636C3498.26 358.806 3492.58 352.154 3488.61 343.678C3484.63 335.203 3482.64 325.52 3482.64 314.63C3482.64 303.551 3484.68 293.773 3488.75 285.298C3492.87 276.775 3498.6 270.123 3505.93 265.34C3513.32 260.511 3521.94 258.096 3531.79 258.096C3539.46 258.096 3546.37 259.517 3552.53 262.357C3558.68 265.198 3563.72 269.176 3567.65 274.289C3571.58 279.403 3574.02 285.369 3574.97 292.187H3558.21C3556.93 287.215 3554.09 282.812 3549.68 278.977C3545.33 275.094 3539.46 273.153 3532.07 273.153C3525.54 273.153 3519.81 274.857 3514.88 278.267C3510.01 281.628 3506.2 286.387 3503.45 292.542C3500.75 298.65 3499.4 305.823 3499.4 314.062C3499.4 322.49 3500.73 329.829 3503.38 336.079C3506.08 342.329 3509.86 347.182 3514.74 350.639C3519.67 354.095 3525.44 355.823 3532.07 355.823C3536.43 355.823 3540.38 355.066 3543.93 353.551C3547.48 352.035 3550.49 349.857 3552.95 347.017C3555.41 344.176 3557.17 340.767 3558.21 336.789H3574.97C3574.02 343.229 3571.68 349.029 3567.94 354.19C3564.24 359.303 3559.34 363.375 3553.24 366.406C3547.18 369.389 3540.12 370.88 3532.07 370.88ZM3616.23 302.982V368.607H3599.47V223.153H3616.23V276.562H3617.65C3620.21 270.927 3624.05 266.453 3629.16 263.139C3634.32 259.777 3641.19 258.096 3649.76 258.096C3657.19 258.096 3663.7 259.588 3669.29 262.57C3674.87 265.506 3679.21 270.028 3682.28 276.136C3685.41 282.196 3686.97 289.914 3686.97 299.289V368.607H3670.21V300.426C3670.21 291.761 3667.96 285.061 3663.46 280.326C3659.01 275.544 3652.83 273.153 3644.93 273.153C3639.43 273.153 3634.51 274.313 3630.15 276.633C3625.84 278.953 3622.44 282.338 3619.93 286.789C3617.46 291.24 3616.23 296.638 3616.23 302.982Z" fill="black"/>
<path d="M4174.12 368.607V223.153H4261.34V238.778H4191.73V287.926H4254.8V303.551H4191.73V368.607H4174.12ZM4325.54 370.88C4315.69 370.88 4307.05 368.536 4299.62 363.849C4292.23 359.161 4286.45 352.604 4282.29 344.176C4278.17 335.748 4276.11 325.899 4276.11 314.63C4276.11 303.267 4278.17 293.347 4282.29 284.872C4286.45 276.396 4292.23 269.815 4299.62 265.127C4307.05 260.44 4315.69 258.096 4325.54 258.096C4335.39 258.096 4344.01 260.44 4351.39 265.127C4358.83 269.815 4364.6 276.396 4368.72 284.872C4372.89 293.347 4374.97 303.267 4374.97 314.63C4374.97 325.899 4372.89 335.748 4368.72 344.176C4364.6 352.604 4358.83 359.161 4351.39 363.849C4344.01 368.536 4335.39 370.88 4325.54 370.88ZM4325.54 355.823C4333.02 355.823 4339.18 353.906 4344.01 350.07C4348.84 346.235 4352.41 341.193 4354.73 334.943C4357.05 328.693 4358.21 321.922 4358.21 314.63C4358.21 307.338 4357.05 300.544 4354.73 294.247C4352.41 287.949 4348.84 282.859 4344.01 278.977C4339.18 275.094 4333.02 273.153 4325.54 273.153C4318.06 273.153 4311.9 275.094 4307.07 278.977C4302.24 282.859 4298.67 287.949 4296.35 294.247C4294.03 300.544 4292.87 307.338 4292.87 314.63C4292.87 321.922 4294.03 328.693 4296.35 334.943C4298.67 341.193 4302.24 346.235 4307.07 350.07C4311.9 353.906 4318.06 355.823 4325.54 355.823ZM4417.32 223.153V368.607H4400.56V223.153H4417.32ZM4489.21 370.88C4480.12 370.88 4472.1 368.584 4465.14 363.991C4458.17 359.351 4452.73 352.817 4448.8 344.389C4444.87 335.913 4442.91 325.899 4442.91 314.346C4442.91 302.888 4444.87 292.945 4448.8 284.517C4452.73 276.088 4458.2 269.578 4465.21 264.985C4472.21 260.392 4480.31 258.096 4489.5 258.096C4496.6 258.096 4502.21 259.28 4506.33 261.647C4510.49 263.967 4513.67 266.619 4515.85 269.602C4518.07 272.537 4519.8 274.952 4521.03 276.846H4522.45V223.153H4539.21V368.607H4523.02V351.846H4521.03C4519.8 353.835 4518.05 356.344 4515.77 359.374C4513.5 362.357 4510.26 365.033 4506.04 367.4C4501.83 369.72 4496.22 370.88 4489.21 370.88ZM4491.48 355.823C4498.21 355.823 4503.89 354.071 4508.53 350.568C4513.17 347.017 4516.7 342.116 4519.11 335.866C4521.53 329.569 4522.73 322.301 4522.73 314.062C4522.73 305.918 4521.55 298.792 4519.18 292.684C4516.82 286.529 4513.31 281.747 4508.67 278.338C4504.03 274.881 4498.3 273.153 4491.48 273.153C4484.38 273.153 4478.46 274.976 4473.73 278.622C4469.04 282.22 4465.51 287.121 4463.15 293.323C4460.83 299.479 4459.67 306.392 4459.67 314.062C4459.67 321.827 4460.85 328.882 4463.22 335.227C4465.63 341.524 4469.18 346.543 4473.87 350.284C4478.61 353.977 4484.48 355.823 4491.48 355.823ZM4617.98 370.88C4607.46 370.88 4598.4 368.56 4590.77 363.92C4583.2 359.232 4577.35 352.698 4573.23 344.318C4569.16 335.89 4567.12 326.088 4567.12 314.914C4567.12 303.74 4569.16 293.892 4573.23 285.369C4577.35 276.799 4583.08 270.123 4590.42 265.34C4597.81 260.511 4606.42 258.096 4616.27 258.096C4621.95 258.096 4627.56 259.043 4633.1 260.937C4638.64 262.831 4643.69 265.909 4648.23 270.17C4652.78 274.384 4656.4 279.971 4659.1 286.931C4661.8 293.892 4663.15 302.462 4663.15 312.642V319.744H4579.06V305.255H4646.1C4646.1 299.1 4644.87 293.607 4642.41 288.778C4639.99 283.948 4636.54 280.137 4632.04 277.343C4627.59 274.55 4622.33 273.153 4616.27 273.153C4609.6 273.153 4603.82 274.81 4598.94 278.124C4594.11 281.392 4590.4 285.653 4587.79 290.909C4585.19 296.164 4583.89 301.799 4583.89 307.812V317.471C4583.89 325.71 4585.31 332.694 4588.15 338.423C4591.03 344.105 4595.04 348.437 4600.15 351.42C4605.26 354.356 4611.21 355.823 4617.98 355.823C4622.38 355.823 4626.36 355.208 4629.91 353.977C4633.51 352.698 4636.61 350.804 4639.21 348.295C4641.82 345.738 4643.83 342.566 4645.25 338.778L4661.44 343.323C4659.74 348.816 4656.87 353.645 4652.85 357.812C4648.82 361.931 4643.85 365.151 4637.93 367.471C4632.01 369.744 4625.36 370.88 4617.98 370.88ZM4688.64 368.607V259.517H4704.84V275.994H4705.97C4707.96 270.596 4711.56 266.216 4716.77 262.855C4721.98 259.493 4727.85 257.812 4734.38 257.812C4735.61 257.812 4737.15 257.836 4739 257.883C4740.85 257.93 4742.24 258.001 4743.19 258.096V275.142C4742.62 274.999 4741.32 274.786 4739.28 274.502C4737.29 274.171 4735.19 274.005 4732.96 274.005C4727.66 274.005 4722.92 275.118 4718.76 277.343C4714.64 279.521 4711.37 282.552 4708.96 286.434C4706.59 290.269 4705.41 294.649 4705.41 299.573V368.607H4688.64ZM4840.33 283.948L4825.27 288.21C4824.33 285.7 4822.93 283.262 4821.08 280.894C4819.28 278.48 4816.82 276.491 4813.7 274.928C4810.57 273.366 4806.57 272.585 4801.69 272.585C4795.02 272.585 4789.45 274.124 4785 277.201C4780.6 280.231 4778.4 284.09 4778.4 288.778C4778.4 292.945 4779.91 296.235 4782.94 298.65C4785.97 301.065 4790.71 303.077 4797.15 304.687L4813.34 308.664C4823.1 311.032 4830.36 314.654 4835.15 319.531C4839.93 324.36 4842.32 330.587 4842.32 338.21C4842.32 344.46 4840.52 350.047 4836.92 354.971C4833.37 359.895 4828.4 363.778 4822.01 366.619C4815.61 369.46 4808.18 370.88 4799.71 370.88C4788.58 370.88 4779.37 368.465 4772.08 363.636C4764.79 358.806 4760.17 351.751 4758.23 342.471L4774.14 338.494C4775.65 344.365 4778.52 348.768 4782.73 351.704C4786.99 354.64 4792.56 356.107 4799.42 356.107C4807.23 356.107 4813.44 354.45 4818.03 351.136C4822.67 347.774 4824.99 343.749 4824.99 339.062C4824.99 335.274 4823.66 332.102 4821.01 329.545C4818.36 326.941 4814.29 324.999 4808.8 323.721L4790.61 319.46C4780.62 317.092 4773.28 313.423 4768.6 308.451C4763.96 303.432 4761.64 297.159 4761.64 289.63C4761.64 283.475 4763.37 278.03 4766.82 273.295C4770.33 268.56 4775.08 264.843 4781.1 262.144C4787.16 259.445 4794.02 258.096 4801.69 258.096C4812.49 258.096 4820.96 260.463 4827.12 265.198C4833.32 269.933 4837.73 276.183 4840.33 283.948Z" fill="black"/>
<path d="M3856.08 188.488V178.306H3861.76V178.883H3856.7V183.104H3861.29V183.681H3856.7V188.488H3856.08ZM3866.35 188.647C3865.72 188.647 3865.16 188.478 3864.67 188.14C3864.17 187.799 3863.79 187.33 3863.51 186.733C3863.23 186.137 3863.08 185.457 3863.08 184.695C3863.08 183.929 3863.23 183.25 3863.51 182.657C3863.79 182.06 3864.17 181.591 3864.67 181.25C3865.16 180.908 3865.72 180.738 3866.35 180.738C3866.98 180.738 3867.54 180.908 3868.03 181.25C3868.52 181.591 3868.9 182.06 3869.18 182.657C3869.47 183.253 3869.61 183.933 3869.61 184.695C3869.61 185.457 3869.47 186.137 3869.18 186.733C3868.9 187.33 3868.52 187.799 3868.03 188.14C3867.54 188.478 3866.98 188.647 3866.35 188.647ZM3866.35 188.086C3866.88 188.086 3867.34 187.935 3867.74 187.633C3868.14 187.332 3868.45 186.924 3868.67 186.41C3868.89 185.896 3869.01 185.325 3869.01 184.695C3869.01 184.065 3868.89 183.495 3868.67 182.985C3868.45 182.471 3868.14 182.063 3867.74 181.762C3867.34 181.457 3866.88 181.304 3866.35 181.304C3865.81 181.304 3865.35 181.457 3864.95 181.762C3864.55 182.063 3864.24 182.471 3864.02 182.985C3863.8 183.495 3863.69 184.065 3863.69 184.695C3863.69 185.325 3863.8 185.896 3864.01 186.41C3864.24 186.924 3864.55 187.332 3864.94 187.633C3865.34 187.935 3865.81 188.086 3866.35 188.086ZM3872.3 178.306V188.488H3871.7V178.306H3872.3ZM3877.43 188.647C3876.82 188.647 3876.29 188.478 3875.83 188.14C3875.37 187.802 3875.02 187.337 3874.76 186.743C3874.52 186.147 3874.39 185.462 3874.39 184.69C3874.39 183.924 3874.52 183.245 3874.77 182.652C3875.02 182.055 3875.38 181.588 3875.84 181.25C3876.3 180.908 3876.83 180.738 3877.44 180.738C3877.88 180.738 3878.26 180.822 3878.58 180.991C3878.9 181.157 3879.17 181.377 3879.39 181.652C3879.61 181.927 3879.78 182.229 3879.9 182.557H3879.96V178.306H3880.56V188.488H3879.97V186.823H3879.9C3879.78 187.151 3879.61 187.454 3879.39 187.733C3879.17 188.008 3878.9 188.23 3878.57 188.399C3878.25 188.565 3877.87 188.647 3877.43 188.647ZM3877.49 188.086C3878.01 188.086 3878.45 187.938 3878.82 187.643C3879.19 187.345 3879.47 186.94 3879.67 186.43C3879.86 185.916 3879.96 185.335 3879.96 184.685C3879.96 184.035 3879.86 183.457 3879.67 182.95C3879.47 182.44 3879.19 182.038 3878.82 181.747C3878.45 181.452 3878.01 181.304 3877.49 181.304C3876.96 181.304 3876.52 181.453 3876.14 181.752C3875.77 182.047 3875.48 182.449 3875.29 182.96C3875.09 183.47 3874.99 184.045 3874.99 184.685C3874.99 185.325 3875.09 185.901 3875.29 186.415C3875.48 186.929 3875.77 187.337 3876.14 187.638C3876.52 187.936 3876.96 188.086 3877.49 188.086ZM3886.27 188.647C3885.58 188.647 3884.98 188.477 3884.47 188.135C3883.96 187.794 3883.56 187.327 3883.29 186.733C3883.01 186.14 3882.87 185.464 3882.87 184.705C3882.87 183.943 3883.01 183.263 3883.29 182.667C3883.57 182.07 3883.95 181.599 3884.44 181.255C3884.93 180.91 3885.49 180.738 3886.12 180.738C3886.55 180.738 3886.96 180.824 3887.34 180.996C3887.72 181.165 3888.06 181.41 3888.35 181.732C3888.65 182.053 3888.88 182.441 3889.04 182.895C3889.21 183.349 3889.3 183.86 3889.3 184.426V184.804H3883.25V184.252H3888.69C3888.69 183.699 3888.58 183.2 3888.35 182.756C3888.13 182.312 3887.82 181.959 3887.43 181.697C3887.04 181.435 3886.61 181.304 3886.12 181.304C3885.62 181.304 3885.16 181.447 3884.77 181.732C3884.37 182.014 3884.06 182.395 3883.83 182.875C3883.6 183.356 3883.48 183.893 3883.47 184.486V184.735C3883.47 185.371 3883.58 185.943 3883.8 186.45C3884.03 186.954 3884.35 187.353 3884.77 187.648C3885.18 187.94 3885.68 188.086 3886.27 188.086C3886.69 188.086 3887.04 188.016 3887.34 187.877C3887.64 187.734 3887.88 187.562 3888.07 187.36C3888.26 187.158 3888.4 186.962 3888.5 186.773L3889.05 186.997C3888.93 187.252 3888.75 187.507 3888.51 187.762C3888.26 188.014 3887.96 188.225 3887.58 188.394C3887.21 188.563 3886.77 188.647 3886.27 188.647ZM3891.38 188.488V180.852H3891.98V182.045H3892.03C3892.2 181.654 3892.48 181.341 3892.87 181.105C3893.26 180.867 3893.71 180.748 3894.22 180.748C3894.27 180.748 3894.32 180.748 3894.38 180.748C3894.43 180.748 3894.48 180.749 3894.53 180.752V181.364C3894.49 181.361 3894.44 181.356 3894.38 181.349C3894.33 181.339 3894.26 181.334 3894.18 181.334C3893.76 181.334 3893.38 181.425 3893.05 181.608C3892.72 181.79 3892.46 182.042 3892.27 182.363C3892.08 182.681 3891.99 183.046 3891.99 183.457V188.488H3891.38ZM3901.01 182.498L3900.45 182.647C3900.36 182.368 3900.23 182.128 3900.06 181.926C3899.9 181.724 3899.69 181.568 3899.44 181.458C3899.19 181.346 3898.89 181.289 3898.54 181.289C3897.98 181.289 3897.52 181.429 3897.16 181.707C3896.81 181.985 3896.63 182.348 3896.63 182.796C3896.63 183.16 3896.75 183.462 3897 183.701C3897.24 183.936 3897.61 184.115 3898.1 184.238L3899.28 184.531C3899.88 184.68 3900.33 184.922 3900.64 185.257C3900.94 185.588 3901.1 186.001 3901.1 186.495C3901.1 186.916 3900.98 187.288 3900.75 187.613C3900.53 187.938 3900.21 188.192 3899.8 188.374C3899.4 188.556 3898.94 188.647 3898.4 188.647C3897.69 188.647 3897.1 188.482 3896.65 188.15C3896.19 187.815 3895.9 187.337 3895.77 186.713L3896.35 186.564C3896.46 187.061 3896.69 187.441 3897.03 187.703C3897.38 187.961 3897.83 188.091 3898.4 188.091C3899.02 188.091 3899.52 187.943 3899.9 187.648C3900.29 187.353 3900.48 186.975 3900.48 186.515C3900.48 186.163 3900.37 185.867 3900.14 185.625C3899.92 185.383 3899.58 185.205 3899.12 185.093L3897.9 184.794C3897.28 184.642 3896.81 184.398 3896.5 184.064C3896.19 183.725 3896.03 183.31 3896.03 182.816C3896.03 182.405 3896.14 182.043 3896.35 181.732C3896.57 181.42 3896.87 181.177 3897.24 181.001C3897.62 180.825 3898.05 180.738 3898.54 180.738C3899.19 180.738 3899.71 180.89 3900.12 181.195C3900.53 181.5 3900.83 181.934 3901.01 182.498Z" fill="black"/>
<rect x="5641" y="366" width="125" height="66" fill="black"/>
<rect x="5512" y="316" width="75.4802" height="57.4205" fill="black"/>
<rect x="5587" y="239" width="54" height="77" fill="black"/>
<rect x="5535" y="298" width="52" height="46" fill="black"/>
<path d="M5568 266.5L5602 251V301H5550L5568 266.5Z" fill="black"/>
<path d="M6008 307L6086 254V355H5982L6008 307Z" fill="black"/>
<path d="M6108 390.5L6208 380V436H6097L6108 390.5Z" fill="black"/>
</svg>
