<svg width="1322" height="312" viewBox="0 0 1322 312" fill="none" xmlns="http://www.w3.org/2000/svg">
<path d="M738.299 191.934L792.87 251.793C759.038 282.636 716.129 300.101 716.129 300.101C653.021 317.712 491.921 181.488 521.693 75.3289L577.283 15.3135L632.535 75.9202L583.391 120.722C587.41 173.006 638.132 226.419 689.156 236.736L738.299 191.934Z" stroke="black" stroke-width="20"/>
<path d="M290 64V258H10V64H290Z" stroke="black" stroke-width="20"/>
<rect x="1021" y="41" width="291" height="237" stroke="black" stroke-width="20"/>
<rect x="1149.98" y="112" width="33.9765" height="29.6" stroke="black" stroke-width="20"/>
<rect x="1081" y="112" width="33.9765" height="29.6" stroke="black" stroke-width="20"/>
<rect x="1218.95" y="112" width="33.9765" height="29.6" stroke="black" stroke-width="20"/>
<rect x="1149.98" y="175.6" width="33.9765" height="29.6" stroke="black" stroke-width="20"/>
<rect x="1081" y="175.6" width="33.9765" height="29.6" stroke="black" stroke-width="20"/>
<rect x="1218.95" y="175.6" width="33.9765" height="29.6" stroke="black" stroke-width="20"/>
<rect x="1057" width="30" height="61" fill="black"/>
<rect x="1249" width="30" height="61" fill="black"/>
</svg>
