<svg width="2353" height="317" viewBox="0 0 2353 317" fill="none" xmlns="http://www.w3.org/2000/svg">
<circle cx="158.5" cy="158.5" r="148.5" stroke="black" stroke-width="20"/>
<ellipse cx="91" cy="125.5" rx="13" ry="14.5" fill="black"/>
<ellipse cx="224" cy="125.5" rx="13" ry="14.5" fill="black"/>
<path d="M172 140.5C172 147 166.18 148 159 148C151.82 148 146 147 146 140.5C146 133 151.82 133 159 133C166.18 133 172 133 172 140.5Z" fill="black"/>
<path d="M159 162C184.258 162 207.414 163.89 224.044 166.788C232.436 168.251 238.71 169.894 242.659 171.477C243.147 171.672 243.566 171.854 243.924 172.02C243.613 178.56 242.02 191.231 233.866 203.176C224.248 217.266 203.96 232.5 159 232.5C114.04 232.5 93.7524 217.266 84.1338 203.176C75.9796 191.231 74.3863 178.56 74.0752 172.02C74.4335 171.854 74.853 171.672 75.3408 171.477C79.2898 169.894 85.5636 168.251 93.9561 166.788C110.586 163.89 133.742 162 159 162Z" stroke="black" stroke-width="20"/>
<path d="M798 10V307H541V101H628.159V10H798ZM608.159 81H554.425L608.159 24.8975V81Z" stroke="black" stroke-width="20"/>
<circle cx="1180.5" cy="158.5" r="148.5" stroke="black" stroke-width="20"/>
<circle cx="1181" cy="158" r="117" stroke="black" stroke-width="20"/>
<circle cx="1177.84" cy="156.5" r="15.5" stroke="black" stroke-width="20"/>
<rect x="1160.11" y="172" width="22.6917" height="61.7351" rx="10" transform="rotate(13.2151 1160.11 172)" stroke="black" stroke-width="20"/>
<rect x="1235.66" y="79" width="22.6917" height="71.8524" rx="10" transform="rotate(43.3511 1235.66 79)" stroke="black" stroke-width="20"/>
<mask id="path-12-inside-1_160_2" fill="white">
<rect x="1553" width="280" height="317" rx="10"/>
</mask>
<rect x="1553" width="280" height="317" rx="10" stroke="black" stroke-width="40" mask="url(#path-12-inside-1_160_2)"/>
<mask id="path-13-inside-2_160_2" fill="white">
<rect x="1610" y="4" width="166" height="75" rx="10"/>
</mask>
<rect x="1610" y="4" width="166" height="75" rx="10" stroke="black" stroke-width="40" mask="url(#path-13-inside-2_160_2)"/>
<path d="M2074 106.453L2113.59 140.951C2133.5 116.279 2161.32 50.7661 2248.47 67.7863C2370.6 91.6347 2343.74 210.412 2328.92 251.625C2311 251.625 2290 246 2278.3 235.305C2291 203.5 2304.61 138.303 2248.47 121.039C2193.45 104.119 2166.38 157.159 2153.42 176.376L2188.84 211.106L2074 220.611V106.453Z" stroke="black" stroke-width="20"/>
</svg>
