<svg width="5962" height="555" viewBox="0 0 5962 555" fill="none" xmlns="http://www.w3.org/2000/svg">
<path d="M1950.82 428.064V191.588C1950.82 150.415 1959.67 126.911 1979.66 126.911H2096.95C2106.56 126.911 2125.79 135.134 2125.79 191.588H2268.07V428.064H1950.82Z" stroke="black" stroke-width="20"/>
<path d="M2765.96 168.863C2839.83 168.863 2898.72 225.283 2898.72 293.695C2898.72 362.107 2839.83 418.527 2765.96 418.527C2692.09 418.527 2633.2 362.107 2633.2 293.695C2633.2 225.284 2692.09 168.864 2765.96 168.863Z" stroke="black" stroke-width="20"/>
<path d="M2890.14 460.251L2826.95 389.471L2859.99 361.705C2874.83 376.904 2908.51 412.302 2924.59 432.306C2918.84 451.132 2899.23 458.781 2890.14 460.251Z" fill="#C8C8C8"/>
<path d="M2687.75 270.513C2647.55 284.633 2631.81 260.614 2637.55 241.983C2648.33 207.022 2664.87 186.42 2710.71 171.967C2788.22 158.168 2805.93 175.89 2788.22 198.442C2771.48 216.583 2727.94 256.393 2687.75 270.513Z" fill="#C8C8C8"/>
<path d="M2687.75 400.816C2639.9 377.83 2638.94 336.551 2640.38 313.759C2640.38 302.646 2647.55 310.52 2687.75 329.347C2735.72 351.821 2757.45 393.464 2747.02 407.531C2737.06 420.96 2711.36 412.161 2687.75 400.816Z" fill="#C8C8C8"/>
<path d="M2844.2 263.159C2818.94 213.739 2811.45 172.991 2844.2 177.851C2876.96 182.711 2902.77 254.684 2906.6 286.67C2910.42 318.656 2902.48 350.527 2882.96 346.997C2858.56 342.584 2875.78 324.934 2844.2 263.159Z" fill="#C8C8C8"/>
<path d="M2890.14 460.251L2826.95 389.471L2859.99 361.705C2874.83 376.904 2908.51 412.302 2924.59 432.306C2918.84 451.132 2899.23 458.781 2890.14 460.251Z" stroke="black" stroke-width="20"/>
<path d="M2687.75 270.513C2647.55 284.633 2631.81 260.614 2637.55 241.983C2648.33 207.022 2664.87 186.42 2710.71 171.967C2788.22 158.168 2805.93 175.89 2788.22 198.442C2771.48 216.583 2727.94 256.393 2687.75 270.513Z" stroke="black" stroke-width="20"/>
<path d="M2687.75 400.816C2639.9 377.83 2638.94 336.551 2640.38 313.759C2640.38 302.646 2647.55 310.52 2687.75 329.347C2735.72 351.821 2757.45 393.464 2747.02 407.531C2737.06 420.96 2711.36 412.161 2687.75 400.816Z" stroke="black" stroke-width="20"/>
<path d="M2844.2 263.159C2818.94 213.739 2811.45 172.991 2844.2 177.851C2876.96 182.711 2902.77 254.684 2906.6 286.67C2910.42 318.656 2902.48 350.527 2882.96 346.997C2858.56 342.584 2875.78 324.934 2844.2 263.159Z" stroke="black" stroke-width="20"/>
<circle cx="2815.6" cy="339.228" r="70.3425" fill="#D9D9D9" stroke="black" stroke-width="20"/>
<path d="M3781.8 301.163V175.704C3781.8 165.61 3781.8 158.399 3820.15 158.399C3850.83 158.399 3851.4 168.243 3851.4 175.704H3972.15V301.163H3781.8Z" fill="#C8C8C8" stroke="black" stroke-width="20"/>
<path d="M3861.11 396.338V270.88C3861.11 260.785 3861.11 253.575 3899.46 253.575C3930.15 253.575 3930.71 263.172 3930.71 270.88H4051.46V396.338H3861.11Z" fill="#C8C8C8" stroke="black" stroke-width="20"/>
<path d="M5036.39 184.263C5111.49 184.263 5169.15 234.68 5169.15 293.232C5169.15 351.785 5111.49 402.201 5036.39 402.201C4961.28 402.201 4903.62 351.784 4903.62 293.232C4903.62 234.68 4961.28 184.263 5036.39 184.263Z" stroke="black" stroke-width="20"/>
<path d="M5036.39 215.987C5111.49 215.987 5169.15 266.405 5169.15 324.957C5169.15 383.509 5111.49 433.926 5036.39 433.926C4961.28 433.926 4903.62 383.509 4903.62 324.957C4903.62 266.405 4961.28 215.988 5036.39 215.987Z" stroke="black" stroke-width="20"/>
<path d="M5121.76 158.399L5147.43 179.282V266.024L5044.76 285.3L5020.52 266.024C5025.2 260.762 5069.07 214.202 5102.04 179.282C5109.33 171.561 5116.08 164.41 5121.76 158.399Z" fill="#C7C7C7"/>
<path d="M5147.43 179.282L5121.76 158.399C5116.08 164.41 5109.33 171.561 5102.04 179.282C5069.07 214.202 5025.2 260.762 5020.52 266.024L5044.76 285.3M5147.43 179.282L5044.76 285.3M5147.43 179.282V266.024L5044.76 285.3" stroke="black" stroke-width="20"/>
<path d="M5492 222.725V191H5761.66V222.725M5492 222.725V428.939H5761.66V222.725M5492 222.725H5761.66" stroke="black" stroke-width="20"/>
<path d="M1169.75 285.744H1090.44L1130.1 333.332L1169.75 285.744Z" fill="#4F4F4F"/>
<path d="M1804.2 285.526H1724.88L1764.54 333.114L1804.2 285.526Z" fill="#4F4F4F"/>
<path d="M2476.4 55.1357V499.288" stroke="#909090" stroke-width="20"/>
<path d="M5330.76 55.1357V499.288" stroke="#909090" stroke-width="20"/>
<path d="M455.966 275.497V348.012H271.442V388.802C232.487 358.587 154.577 305.863 154.577 309.489C154.577 313.114 232.487 255.858 271.442 230.176V275.497H455.966Z" stroke="black" stroke-width="20"/>
<path d="M1328.46 275.497V348.012H1512.98V388.802C1551.94 358.587 1629.85 305.863 1629.85 309.489C1629.85 313.114 1551.94 255.858 1512.98 230.176V275.497H1328.46Z" stroke="black" stroke-width="20"/>
<path d="M568.578 368.607V223.153H619.43C629.562 223.153 637.919 224.905 644.501 228.409C651.082 231.865 655.983 236.529 659.203 242.4C662.422 248.224 664.032 254.687 664.032 261.789C664.032 268.039 662.919 273.2 660.694 277.272C658.516 281.344 655.628 284.564 652.029 286.931C648.478 289.299 644.619 291.051 640.453 292.187V293.607C644.903 293.892 649.378 295.454 653.876 298.295C658.374 301.136 662.138 305.208 665.168 310.511C668.199 315.814 669.714 322.301 669.714 329.971C669.714 337.263 668.057 343.82 664.742 349.644C661.428 355.468 656.196 360.085 649.046 363.494C641.897 366.903 632.593 368.607 621.134 368.607H568.578ZM586.191 352.982H621.134C632.64 352.982 640.808 350.757 645.637 346.306C650.514 341.808 652.953 336.363 652.953 329.971C652.953 325.047 651.698 320.501 649.188 316.335C646.679 312.121 643.104 308.759 638.464 306.249C633.824 303.693 628.331 302.414 621.987 302.414H586.191V352.982ZM586.191 287.073H618.862C624.165 287.073 628.947 286.032 633.208 283.948C637.517 281.865 640.926 278.929 643.435 275.142C645.992 271.354 647.271 266.903 647.271 261.789C647.271 255.397 645.045 249.976 640.595 245.525C636.144 241.027 629.089 238.778 619.43 238.778H586.191V287.073ZM728.485 371.164C721.572 371.164 715.299 369.862 709.664 367.258C704.03 364.606 699.555 360.795 696.241 355.823C692.926 350.804 691.269 344.744 691.269 337.642C691.269 331.392 692.5 326.325 694.962 322.443C697.425 318.513 700.715 315.435 704.835 313.21C708.954 310.984 713.499 309.327 718.471 308.238C723.49 307.102 728.533 306.202 733.599 305.539C740.228 304.687 745.602 304.048 749.721 303.622C753.888 303.148 756.918 302.367 758.812 301.278C760.753 300.189 761.724 298.295 761.724 295.596V295.028C761.724 288.02 759.806 282.575 755.971 278.693C752.183 274.81 746.43 272.869 738.712 272.869C730.711 272.869 724.437 274.621 719.891 278.124C715.346 281.628 712.15 285.369 710.303 289.346L694.394 283.664C697.235 277.035 701.023 271.874 705.758 268.181C710.54 264.441 715.748 261.837 721.383 260.369C727.065 258.854 732.652 258.096 738.144 258.096C741.648 258.096 745.673 258.522 750.218 259.374C754.811 260.179 759.238 261.86 763.499 264.417C767.808 266.974 771.383 270.833 774.224 275.994C777.065 281.155 778.485 288.068 778.485 296.732V368.607H761.724V353.835H760.872C759.735 356.202 757.841 358.735 755.19 361.434C752.538 364.133 749.011 366.429 744.607 368.323C740.204 370.217 734.83 371.164 728.485 371.164ZM731.042 356.107C737.671 356.107 743.258 354.805 747.803 352.201C752.396 349.597 755.853 346.235 758.173 342.116C760.54 337.997 761.724 333.664 761.724 329.119V313.778C761.014 314.63 759.451 315.411 757.036 316.122C754.669 316.785 751.923 317.376 748.798 317.897C745.72 318.371 742.713 318.797 739.778 319.176C736.89 319.507 734.546 319.791 732.747 320.028C728.39 320.596 724.319 321.519 720.531 322.798C716.79 324.029 713.76 325.899 711.44 328.409C709.167 330.871 708.031 334.232 708.031 338.494C708.031 344.318 710.185 348.721 714.494 351.704C718.85 354.64 724.366 356.107 731.042 356.107ZM853.396 370.88C843.169 370.88 834.362 368.465 826.976 363.636C819.59 358.806 813.908 352.154 809.93 343.678C805.953 335.203 803.965 325.52 803.965 314.63C803.965 303.551 806.001 293.773 810.073 285.298C814.192 276.775 819.921 270.123 827.26 265.34C834.646 260.511 843.264 258.096 853.112 258.096C860.783 258.096 867.696 259.517 873.851 262.357C880.006 265.198 885.049 269.176 888.979 274.289C892.909 279.403 895.347 285.369 896.294 292.187H879.533C878.254 287.215 875.413 282.812 871.01 278.977C866.654 275.094 860.783 273.153 853.396 273.153C846.862 273.153 841.133 274.857 836.209 278.267C831.332 281.628 827.52 286.387 824.774 292.542C822.075 298.65 820.726 305.823 820.726 314.062C820.726 322.49 822.052 329.829 824.703 336.079C827.402 342.329 831.19 347.182 836.067 350.639C840.991 354.095 846.768 355.823 853.396 355.823C857.752 355.823 861.706 355.066 865.257 353.551C868.808 352.035 871.815 349.857 874.277 347.017C876.739 344.176 878.491 340.767 879.533 336.789H896.294C895.347 343.229 893.003 349.029 889.263 354.19C885.57 359.303 880.669 363.375 874.561 366.406C868.501 369.389 861.446 370.88 853.396 370.88ZM936.422 328.835L936.138 308.096H939.547L987.274 259.517H1008.01L957.161 310.937H955.74L936.422 328.835ZM920.797 368.607V223.153H937.558V368.607H920.797ZM990.115 368.607L947.502 314.63L959.433 302.982L1011.42 368.607H990.115Z" fill="black"/>
<path d="M3121.84 259.517C3120.98 252.32 3117.53 246.732 3111.47 242.755C3105.41 238.778 3097.97 236.789 3089.17 236.789C3082.73 236.789 3077.09 237.831 3072.26 239.914C3067.48 241.998 3063.74 244.862 3061.04 248.508C3058.39 252.154 3057.06 256.297 3057.06 260.937C3057.06 264.82 3057.99 268.158 3059.83 270.951C3061.73 273.697 3064.14 275.994 3067.08 277.84C3070.01 279.64 3073.09 281.131 3076.31 282.315C3079.53 283.451 3082.49 284.374 3085.19 285.085L3099.96 289.062C3103.75 290.056 3107.96 291.429 3112.6 293.181C3117.29 294.933 3121.77 297.324 3126.03 300.355C3130.34 303.338 3133.89 307.173 3136.68 311.86C3139.47 316.548 3140.87 322.301 3140.87 329.119C3140.87 336.979 3138.81 344.081 3134.69 350.426C3130.62 356.77 3124.65 361.813 3116.79 365.553C3108.98 369.294 3099.49 371.164 3088.31 371.164C3077.9 371.164 3068.88 369.483 3061.25 366.122C3053.68 362.76 3047.71 358.072 3043.36 352.059C3039.05 346.046 3036.61 339.062 3036.04 331.107H3054.22C3054.7 336.6 3056.54 341.145 3059.76 344.744C3063.03 348.295 3067.15 350.946 3072.12 352.698C3077.14 354.403 3082.54 355.255 3088.31 355.255C3095.04 355.255 3101.07 354.166 3106.42 351.988C3111.78 349.763 3116.01 346.685 3119.14 342.755C3122.26 338.778 3123.83 334.138 3123.83 328.835C3123.83 324.005 3122.48 320.075 3119.78 317.045C3117.08 314.015 3113.53 311.552 3109.12 309.659C3104.72 307.765 3099.96 306.107 3094.85 304.687L3076.95 299.573C3065.59 296.306 3056.59 291.642 3049.96 285.582C3043.33 279.521 3040.02 271.59 3040.02 261.789C3040.02 253.645 3042.22 246.543 3046.62 240.482C3051.07 234.374 3057.04 229.64 3064.52 226.278C3072.05 222.869 3080.45 221.164 3089.73 221.164C3099.11 221.164 3107.44 222.845 3114.73 226.207C3122.03 229.521 3127.8 234.067 3132.06 239.843C3136.37 245.62 3138.65 252.177 3138.88 259.517H3121.84ZM3213.3 370.88C3202.78 370.88 3193.72 368.56 3186.09 363.92C3178.52 359.232 3172.67 352.698 3168.55 344.318C3164.48 335.89 3162.44 326.088 3162.44 314.914C3162.44 303.74 3164.48 293.892 3168.55 285.369C3172.67 276.799 3178.4 270.123 3185.74 265.34C3193.13 260.511 3201.74 258.096 3211.59 258.096C3217.27 258.096 3222.88 259.043 3228.42 260.937C3233.96 262.831 3239.01 265.909 3243.55 270.17C3248.1 274.384 3251.72 279.971 3254.42 286.931C3257.12 293.892 3258.47 302.462 3258.47 312.642V319.744H3174.38V305.255H3241.42C3241.42 299.1 3240.19 293.607 3237.73 288.778C3235.31 283.948 3231.86 280.137 3227.36 277.343C3222.91 274.55 3217.65 273.153 3211.59 273.153C3204.92 273.153 3199.14 274.81 3194.26 278.124C3189.43 281.392 3185.72 285.653 3183.11 290.909C3180.51 296.164 3179.21 301.799 3179.21 307.812V317.471C3179.21 325.71 3180.63 332.694 3183.47 338.423C3186.36 344.105 3190.36 348.437 3195.47 351.42C3200.58 354.356 3206.53 355.823 3213.3 355.823C3217.7 355.823 3221.68 355.208 3225.23 353.977C3228.83 352.698 3231.93 350.804 3234.53 348.295C3237.14 345.738 3239.15 342.566 3240.57 338.778L3256.76 343.323C3255.06 348.816 3252.19 353.645 3248.17 357.812C3244.14 361.931 3239.17 365.151 3233.25 367.471C3227.34 369.744 3220.68 370.88 3213.3 370.88ZM3316.07 371.164C3309.15 371.164 3302.88 369.862 3297.25 367.258C3291.61 364.606 3287.14 360.795 3283.82 355.823C3280.51 350.804 3278.85 344.744 3278.85 337.642C3278.85 331.392 3280.08 326.325 3282.54 322.443C3285.01 318.513 3288.3 315.435 3292.42 313.21C3296.53 310.984 3301.08 309.327 3306.05 308.238C3311.07 307.102 3316.11 306.202 3321.18 305.539C3327.81 304.687 3333.18 304.048 3337.3 303.622C3341.47 303.148 3344.5 302.367 3346.39 301.278C3348.33 300.189 3349.3 298.295 3349.3 295.596V295.028C3349.3 288.02 3347.39 282.575 3343.55 278.693C3339.76 274.81 3334.01 272.869 3326.29 272.869C3318.29 272.869 3312.02 274.621 3307.47 278.124C3302.93 281.628 3299.73 285.369 3297.88 289.346L3281.98 283.664C3284.82 277.035 3288.6 271.874 3293.34 268.181C3298.12 264.441 3303.33 261.837 3308.96 260.369C3314.65 258.854 3320.23 258.096 3325.73 258.096C3329.23 258.096 3333.25 258.522 3337.8 259.374C3342.39 260.179 3346.82 261.86 3351.08 264.417C3355.39 266.974 3358.96 270.833 3361.8 275.994C3364.65 281.155 3366.07 288.068 3366.07 296.732V368.607H3349.3V353.835H3348.45C3347.32 356.202 3345.42 358.735 3342.77 361.434C3340.12 364.133 3336.59 366.429 3332.19 368.323C3327.78 370.217 3322.41 371.164 3316.07 371.164ZM3318.62 356.107C3325.25 356.107 3330.84 354.805 3335.38 352.201C3339.98 349.597 3343.43 346.235 3345.75 342.116C3348.12 337.997 3349.3 333.664 3349.3 329.119V313.778C3348.59 314.63 3347.03 315.411 3344.62 316.122C3342.25 316.785 3339.5 317.376 3336.38 317.897C3333.3 318.371 3330.29 318.797 3327.36 319.176C3324.47 319.507 3322.13 319.791 3320.33 320.028C3315.97 320.596 3311.9 321.519 3308.11 322.798C3304.37 324.029 3301.34 325.899 3299.02 328.409C3296.75 330.871 3295.61 334.232 3295.61 338.494C3295.61 344.318 3297.77 348.721 3302.07 351.704C3306.43 354.64 3311.95 356.107 3318.62 356.107ZM3396.66 368.607V259.517H3412.85V275.994H3413.99C3415.98 270.596 3419.58 266.216 3424.78 262.855C3429.99 259.493 3435.86 257.812 3442.4 257.812C3443.63 257.812 3445.17 257.836 3447.01 257.883C3448.86 257.93 3450.26 258.001 3451.2 258.096V275.142C3450.64 274.999 3449.33 274.786 3447.3 274.502C3445.31 274.171 3443.2 274.005 3440.98 274.005C3435.67 274.005 3430.94 275.118 3426.77 277.343C3422.65 279.521 3419.39 282.552 3416.97 286.434C3414.6 290.269 3413.42 294.649 3413.42 299.573V368.607H3396.66ZM3512.07 370.88C3501.84 370.88 3493.04 368.465 3485.65 363.636C3478.26 358.806 3472.58 352.154 3468.61 343.678C3464.63 335.203 3462.64 325.52 3462.64 314.63C3462.64 303.551 3464.68 293.773 3468.75 285.298C3472.87 276.775 3478.6 270.123 3485.93 265.34C3493.32 260.511 3501.94 258.096 3511.79 258.096C3519.46 258.096 3526.37 259.517 3532.53 262.357C3538.68 265.198 3543.72 269.176 3547.65 274.289C3551.58 279.403 3554.02 285.369 3554.97 292.187H3538.21C3536.93 287.215 3534.09 282.812 3529.68 278.977C3525.33 275.094 3519.46 273.153 3512.07 273.153C3505.54 273.153 3499.81 274.857 3494.88 278.267C3490.01 281.628 3486.2 286.387 3483.45 292.542C3480.75 298.65 3479.4 305.823 3479.4 314.062C3479.4 322.49 3480.73 329.829 3483.38 336.079C3486.08 342.329 3489.86 347.182 3494.74 350.639C3499.67 354.095 3505.44 355.823 3512.07 355.823C3516.43 355.823 3520.38 355.066 3523.93 353.551C3527.48 352.035 3530.49 349.857 3532.95 347.017C3535.41 344.176 3537.17 340.767 3538.21 336.789H3554.97C3554.02 343.229 3551.68 349.029 3547.94 354.19C3544.24 359.303 3539.34 363.375 3533.24 366.406C3527.18 369.389 3520.12 370.88 3512.07 370.88ZM3596.23 302.982V368.607H3579.47V223.153H3596.23V276.562H3597.65C3600.21 270.927 3604.05 266.453 3609.16 263.139C3614.32 259.777 3621.19 258.096 3629.76 258.096C3637.19 258.096 3643.7 259.588 3649.29 262.57C3654.87 265.506 3659.21 270.028 3662.28 276.136C3665.41 282.196 3666.97 289.914 3666.97 299.289V368.607H3650.21V300.426C3650.21 291.761 3647.96 285.061 3643.46 280.326C3639.01 275.544 3632.83 273.153 3624.93 273.153C3619.43 273.153 3614.51 274.313 3610.15 276.633C3605.84 278.953 3602.44 282.338 3599.93 286.789C3597.46 291.24 3596.23 296.638 3596.23 302.982Z" fill="black"/>
<path d="M4154.12 368.607V223.153H4241.34V238.778H4171.73V287.926H4234.8V303.551H4171.73V368.607H4154.12ZM4305.54 370.88C4295.69 370.88 4287.05 368.536 4279.62 363.849C4272.23 359.161 4266.45 352.604 4262.29 344.176C4258.17 335.748 4256.11 325.899 4256.11 314.63C4256.11 303.267 4258.17 293.347 4262.29 284.872C4266.45 276.396 4272.23 269.815 4279.62 265.127C4287.05 260.44 4295.69 258.096 4305.54 258.096C4315.39 258.096 4324.01 260.44 4331.39 265.127C4338.83 269.815 4344.6 276.396 4348.72 284.872C4352.89 293.347 4354.97 303.267 4354.97 314.63C4354.97 325.899 4352.89 335.748 4348.72 344.176C4344.6 352.604 4338.83 359.161 4331.39 363.849C4324.01 368.536 4315.39 370.88 4305.54 370.88ZM4305.54 355.823C4313.02 355.823 4319.18 353.906 4324.01 350.07C4328.84 346.235 4332.41 341.193 4334.73 334.943C4337.05 328.693 4338.21 321.922 4338.21 314.63C4338.21 307.338 4337.05 300.544 4334.73 294.247C4332.41 287.949 4328.84 282.859 4324.01 278.977C4319.18 275.094 4313.02 273.153 4305.54 273.153C4298.06 273.153 4291.9 275.094 4287.07 278.977C4282.24 282.859 4278.67 287.949 4276.35 294.247C4274.03 300.544 4272.87 307.338 4272.87 314.63C4272.87 321.922 4274.03 328.693 4276.35 334.943C4278.67 341.193 4282.24 346.235 4287.07 350.07C4291.9 353.906 4298.06 355.823 4305.54 355.823ZM4421.75 370.88C4412.66 370.88 4404.63 368.584 4397.67 363.991C4390.71 359.351 4385.27 352.817 4381.34 344.389C4377.41 335.913 4375.44 325.899 4375.44 314.346C4375.44 302.888 4377.41 292.945 4381.34 284.517C4385.27 276.088 4390.74 269.578 4397.75 264.985C4404.75 260.392 4412.85 258.096 4422.03 258.096C4429.14 258.096 4434.75 259.28 4438.87 261.647C4443.03 263.967 4446.21 266.619 4448.38 269.602C4450.61 272.537 4452.34 274.952 4453.57 276.846H4454.99V223.153H4471.75V368.607H4455.56V351.846H4453.57C4452.34 353.835 4450.59 356.344 4448.31 359.374C4446.04 362.357 4442.8 365.033 4438.58 367.4C4434.37 369.72 4428.76 370.88 4421.75 370.88ZM4424.02 355.823C4430.75 355.823 4436.43 354.071 4441.07 350.568C4445.71 347.017 4449.24 342.116 4451.65 335.866C4454.07 329.569 4455.27 322.301 4455.27 314.062C4455.27 305.918 4454.09 298.792 4451.72 292.684C4449.36 286.529 4445.85 281.747 4441.21 278.338C4436.57 274.881 4430.84 273.153 4424.02 273.153C4416.92 273.153 4411 274.976 4406.27 278.622C4401.58 282.22 4398.05 287.121 4395.69 293.323C4393.37 299.479 4392.21 306.392 4392.21 314.062C4392.21 321.827 4393.39 328.882 4395.76 335.227C4398.17 341.524 4401.72 346.543 4406.41 350.284C4411.14 353.977 4417.02 355.823 4424.02 355.823ZM4550.52 370.88C4540 370.88 4530.94 368.56 4523.31 363.92C4515.74 359.232 4509.89 352.698 4505.77 344.318C4501.7 335.89 4499.66 326.088 4499.66 314.914C4499.66 303.74 4501.7 293.892 4505.77 285.369C4509.89 276.799 4515.62 270.123 4522.96 265.34C4530.34 260.511 4538.96 258.096 4548.81 258.096C4554.49 258.096 4560.1 259.043 4565.64 260.937C4571.18 262.831 4576.23 265.909 4580.77 270.17C4585.32 274.384 4588.94 279.971 4591.64 286.931C4594.34 293.892 4595.69 302.462 4595.69 312.642V319.744H4511.59V305.255H4578.64C4578.64 299.1 4577.41 293.607 4574.95 288.778C4572.53 283.948 4569.08 280.137 4564.58 277.343C4560.13 274.55 4554.87 273.153 4548.81 273.153C4542.13 273.153 4536.36 274.81 4531.48 278.124C4526.65 281.392 4522.93 285.653 4520.33 290.909C4517.73 296.164 4516.42 301.799 4516.42 307.812V317.471C4516.42 325.71 4517.84 332.694 4520.69 338.423C4523.57 344.105 4527.57 348.437 4532.69 351.42C4537.8 354.356 4543.74 355.823 4550.52 355.823C4554.92 355.823 4558.9 355.208 4562.45 353.977C4566.05 352.698 4569.15 350.804 4571.75 348.295C4574.36 345.738 4576.37 342.566 4577.79 338.778L4593.98 343.323C4592.28 348.816 4589.41 353.645 4585.39 357.812C4581.36 361.931 4576.39 365.151 4570.47 367.471C4564.55 369.744 4557.9 370.88 4550.52 370.88ZM4621.18 368.607V259.517H4637.38V275.994H4638.51C4640.5 270.596 4644.1 266.216 4649.31 262.855C4654.52 259.493 4660.39 257.812 4666.92 257.812C4668.15 257.812 4669.69 257.836 4671.54 257.883C4673.38 257.93 4674.78 258.001 4675.73 258.096V275.142C4675.16 274.999 4673.86 274.786 4671.82 274.502C4669.83 274.171 4667.73 274.005 4665.5 274.005C4660.2 274.005 4655.46 275.118 4651.3 277.343C4647.18 279.521 4643.91 282.552 4641.5 286.434C4639.13 290.269 4637.94 294.649 4637.94 299.573V368.607H4621.18ZM4772.87 283.948L4757.81 288.21C4756.87 285.7 4755.47 283.262 4753.62 280.894C4751.82 278.48 4749.36 276.491 4746.24 274.928C4743.11 273.366 4739.11 272.585 4734.23 272.585C4727.56 272.585 4721.99 274.124 4717.54 277.201C4713.14 280.231 4710.94 284.09 4710.94 288.778C4710.94 292.945 4712.45 296.235 4715.48 298.65C4718.51 301.065 4723.25 303.077 4729.69 304.687L4745.88 308.664C4755.63 311.032 4762.9 314.654 4767.68 319.531C4772.47 324.36 4774.86 330.587 4774.86 338.21C4774.86 344.46 4773.06 350.047 4769.46 354.971C4765.91 359.895 4760.94 363.778 4754.55 366.619C4748.15 369.46 4740.72 370.88 4732.24 370.88C4721.12 370.88 4711.91 368.465 4704.62 363.636C4697.32 358.806 4692.71 351.751 4690.77 342.471L4706.68 338.494C4708.19 344.365 4711.06 348.768 4715.27 351.704C4719.53 354.64 4725.09 356.107 4731.96 356.107C4739.77 356.107 4745.98 354.45 4750.57 351.136C4755.21 347.774 4757.53 343.749 4757.53 339.062C4757.53 335.274 4756.2 332.102 4753.55 329.545C4750.9 326.941 4746.83 324.999 4741.34 323.721L4723.15 319.46C4713.16 317.092 4705.82 313.423 4701.14 308.451C4696.5 303.432 4694.18 297.159 4694.18 289.63C4694.18 283.475 4695.9 278.03 4699.36 273.295C4702.86 268.56 4707.62 264.843 4713.64 262.144C4719.7 259.445 4726.56 258.096 4734.23 258.096C4745.03 258.096 4753.5 260.463 4759.66 265.198C4765.86 269.933 4770.27 276.183 4772.87 283.948Z" fill="black"/>
<path d="M3836.08 188.488V178.306H3841.76V178.883H3836.7V183.104H3841.29V183.681H3836.7V188.488H3836.08ZM3846.35 188.647C3845.72 188.647 3845.16 188.478 3844.67 188.14C3844.17 187.799 3843.79 187.33 3843.51 186.733C3843.23 186.137 3843.08 185.457 3843.08 184.695C3843.08 183.929 3843.23 183.25 3843.51 182.657C3843.79 182.06 3844.17 181.591 3844.67 181.25C3845.16 180.908 3845.72 180.738 3846.35 180.738C3846.98 180.738 3847.54 180.908 3848.03 181.25C3848.52 181.591 3848.9 182.06 3849.18 182.657C3849.47 183.253 3849.61 183.933 3849.61 184.695C3849.61 185.457 3849.47 186.137 3849.18 186.733C3848.9 187.33 3848.52 187.799 3848.03 188.14C3847.54 188.478 3846.98 188.647 3846.35 188.647ZM3846.35 188.086C3846.88 188.086 3847.34 187.935 3847.74 187.633C3848.14 187.332 3848.45 186.924 3848.67 186.41C3848.89 185.896 3849.01 185.325 3849.01 184.695C3849.01 184.065 3848.89 183.495 3848.67 182.985C3848.45 182.471 3848.14 182.063 3847.74 181.762C3847.34 181.457 3846.88 181.304 3846.35 181.304C3845.81 181.304 3845.35 181.457 3844.95 181.762C3844.55 182.063 3844.24 182.471 3844.02 182.985C3843.8 183.495 3843.69 184.065 3843.69 184.695C3843.69 185.325 3843.8 185.896 3844.01 186.41C3844.24 186.924 3844.55 187.332 3844.94 187.633C3845.34 187.935 3845.81 188.086 3846.35 188.086ZM3852.3 178.306V188.488H3851.7V178.306H3852.3ZM3857.43 188.647C3856.82 188.647 3856.29 188.478 3855.83 188.14C3855.37 187.802 3855.02 187.337 3854.76 186.743C3854.52 186.147 3854.39 185.462 3854.39 184.69C3854.39 183.924 3854.52 183.245 3854.77 182.652C3855.02 182.055 3855.38 181.588 3855.84 181.25C3856.3 180.908 3856.83 180.738 3857.44 180.738C3857.88 180.738 3858.26 180.822 3858.58 180.991C3858.9 181.157 3859.17 181.377 3859.39 181.652C3859.61 181.927 3859.78 182.229 3859.9 182.557H3859.96V178.306H3860.56V188.488H3859.97V186.823H3859.9C3859.78 187.151 3859.61 187.454 3859.39 187.733C3859.17 188.008 3858.9 188.23 3858.57 188.399C3858.25 188.565 3857.87 188.647 3857.43 188.647ZM3857.49 188.086C3858.01 188.086 3858.45 187.938 3858.82 187.643C3859.19 187.345 3859.47 186.94 3859.67 186.43C3859.86 185.916 3859.96 185.335 3859.96 184.685C3859.96 184.035 3859.86 183.457 3859.67 182.95C3859.47 182.44 3859.19 182.038 3858.82 181.747C3858.45 181.452 3858.01 181.304 3857.49 181.304C3856.96 181.304 3856.52 181.453 3856.14 181.752C3855.77 182.047 3855.48 182.449 3855.29 182.96C3855.09 183.47 3854.99 184.045 3854.99 184.685C3854.99 185.325 3855.09 185.901 3855.29 186.415C3855.48 186.929 3855.77 187.337 3856.14 187.638C3856.52 187.936 3856.96 188.086 3857.49 188.086ZM3866.27 188.647C3865.58 188.647 3864.98 188.477 3864.47 188.135C3863.96 187.794 3863.56 187.327 3863.29 186.733C3863.01 186.14 3862.87 185.464 3862.87 184.705C3862.87 183.943 3863.01 183.263 3863.29 182.667C3863.57 182.07 3863.95 181.599 3864.44 181.255C3864.93 180.91 3865.49 180.738 3866.12 180.738C3866.55 180.738 3866.96 180.824 3867.34 180.996C3867.72 181.165 3868.06 181.41 3868.35 181.732C3868.65 182.053 3868.88 182.441 3869.04 182.895C3869.21 183.349 3869.3 183.86 3869.3 184.426V184.804H3863.25V184.252H3868.69C3868.69 183.699 3868.58 183.2 3868.35 182.756C3868.13 182.312 3867.82 181.959 3867.43 181.697C3867.04 181.435 3866.61 181.304 3866.12 181.304C3865.62 181.304 3865.16 181.447 3864.77 181.732C3864.37 182.014 3864.06 182.395 3863.83 182.875C3863.6 183.356 3863.48 183.893 3863.47 184.486V184.735C3863.47 185.371 3863.58 185.943 3863.8 186.45C3864.03 186.954 3864.35 187.353 3864.77 187.648C3865.18 187.94 3865.68 188.086 3866.27 188.086C3866.69 188.086 3867.04 188.016 3867.34 187.877C3867.64 187.734 3867.88 187.562 3868.07 187.36C3868.26 187.158 3868.4 186.962 3868.5 186.773L3869.05 186.997C3868.93 187.252 3868.75 187.507 3868.51 187.762C3868.26 188.014 3867.96 188.225 3867.58 188.394C3867.21 188.563 3866.77 188.647 3866.27 188.647ZM3871.38 188.488V180.852H3871.98V182.045H3872.03C3872.2 181.654 3872.48 181.341 3872.87 181.105C3873.26 180.867 3873.71 180.748 3874.22 180.748C3874.27 180.748 3874.32 180.748 3874.38 180.748C3874.43 180.748 3874.48 180.749 3874.53 180.752V181.364C3874.49 181.361 3874.44 181.356 3874.38 181.349C3874.33 181.339 3874.26 181.334 3874.18 181.334C3873.76 181.334 3873.38 181.425 3873.05 181.608C3872.72 181.79 3872.46 182.042 3872.27 182.363C3872.08 182.681 3871.99 183.046 3871.99 183.457V188.488H3871.38ZM3881.01 182.498L3880.45 182.647C3880.36 182.368 3880.23 182.128 3880.06 181.926C3879.9 181.724 3879.69 181.568 3879.44 181.458C3879.19 181.346 3878.89 181.289 3878.54 181.289C3877.98 181.289 3877.52 181.429 3877.16 181.707C3876.81 181.985 3876.63 182.348 3876.63 182.796C3876.63 183.16 3876.75 183.462 3877 183.701C3877.24 183.936 3877.61 184.115 3878.1 184.238L3879.28 184.531C3879.88 184.68 3880.33 184.922 3880.64 185.257C3880.94 185.588 3881.1 186.001 3881.1 186.495C3881.1 186.916 3880.98 187.288 3880.75 187.613C3880.53 187.938 3880.21 188.192 3879.8 188.374C3879.4 188.556 3878.94 188.647 3878.4 188.647C3877.69 188.647 3877.1 188.482 3876.65 188.15C3876.19 187.815 3875.9 187.337 3875.77 186.713L3876.35 186.564C3876.46 187.061 3876.69 187.441 3877.03 187.703C3877.38 187.961 3877.83 188.091 3878.4 188.091C3879.02 188.091 3879.52 187.943 3879.9 187.648C3880.29 187.353 3880.48 186.975 3880.48 186.515C3880.48 186.163 3880.37 185.867 3880.14 185.625C3879.92 185.383 3879.58 185.205 3879.12 185.093L3877.9 184.794C3877.28 184.642 3876.81 184.398 3876.5 184.064C3876.19 183.725 3876.03 183.31 3876.03 182.816C3876.03 182.405 3876.14 182.043 3876.35 181.732C3876.57 181.42 3876.87 181.177 3877.24 181.001C3877.62 180.825 3878.05 180.738 3878.54 180.738C3879.19 180.738 3879.71 180.89 3880.12 181.195C3880.53 181.5 3880.83 181.934 3881.01 182.498Z" fill="black"/>
</svg>
